<svg xmlns="http://www.w3.org/2000/svg" viewBox="0 0 834 832" width="834" height="832">
  <path fill="#000000" fill-rule="evenodd" d="M 167 310 L 166 311 L 165 311 L 164 311 L 163 311 L 162 311 L 161 311 L 160 312 L 159 312 L 158 312 L 157 312 L 156 312 L 155 313 L 154 313 L 153 313 L 152 313 L 151 314 L 150 314 L 149 314 L 148 315 L 147 315 L 146 315 L 145 316 L 144 316 L 143 316 L 142 317 L 141 318 L 140 318 L 139 319 L 138 320 L 137 320 L 136 321 L 135 322 L 134 323 L 134 324 L 133 325 L 132 326 L 132 327 L 131 328 L 130 329 L 130 330 L 129 331 L 129 332 L 128 333 L 128 334 L 127 335 L 127 336 L 127 337 L 126 338 L 126 339 L 126 340 L 125 341 L 125 342 L 125 343 L 125 344 L 124 345 L 124 346 L 124 347 L 124 348 L 123 349 L 123 350 L 123 351 L 123 352 L 123 353 L 123 354 L 123 355 L 123 356 L 123 357 L 123 358 L 123 359 L 123 360 L 123 361 L 123 362 L 123 363 L 123 364 L 123 365 L 123 366 L 123 367 L 124 368 L 124 369 L 124 370 L 124 371 L 125 372 L 125 373 L 126 374 L 126 375 L 127 376 L 127 377 L 128 378 L 129 379 L 130 380 L 131 381 L 132 382 L 133 383 L 134 383 L 135 384 L 136 385 L 137 385 L 138 386 L 139 386 L 140 387 L 141 387 L 142 387 L 143 388 L 144 388 L 145 388 L 146 388 L 147 389 L 148 389 L 149 389 L 150 389 L 151 389 L 152 390 L 153 390 L 154 390 L 155 390 L 156 390 L 157 390 L 158 390 L 159 390 L 160 390 L 161 390 L 162 389 L 163 389 L 164 389 L 165 389 L 166 389 L 167 388 L 167 387 L 167 386 L 167 385 L 167 384 L 167 383 L 167 382 L 166 381 L 166 380 L 166 379 L 166 378 L 166 377 L 165 376 L 165 375 L 165 374 L 164 373 L 164 372 L 164 371 L 163 370 L 163 369 L 163 368 L 162 367 L 162 366 L 162 365 L 161 364 L 161 363 L 160 362 L 160 361 L 160 360 L 159 359 L 159 358 L 159 357 L 158 356 L 158 355 L 158 354 L 157 353 L 157 352 L 156 351 L 156 350 L 155 349 L 155 348 L 155 347 L 154 346 L 154 345 L 153 344 L 153 343 L 153 342 L 152 341 L 152 340 L 151 339 L 151 338 L 151 337 L 150 336 L 150 335 L 149 334 L 149 333 L 149 332 L 150 331 L 151 332 L 152 332 L 153 333 L 154 333 L 155 334 L 156 334 L 157 335 L 158 335 L 159 335 L 160 336 L 161 337 L 162 337 L 163 337 L 164 338 L 165 339 L 166 339 L 167 340 L 168 340 L 169 341 L 170 341 L 171 342 L 172 342 L 173 343 L 174 344 L 175 344 L 176 345 L 177 346 L 178 346 L 179 347 L 180 348 L 181 348 L 182 349 L 183 350 L 184 350 L 185 351 L 186 352 L 187 353 L 188 353 L 189 354 L 190 355 L 191 356 L 192 357 L 193 358 L 194 359 L 195 359 L 196 360 L 197 361 L 198 362 L 199 361 L 199 360 L 199 359 L 200 358 L 200 357 L 201 356 L 201 355 L 201 354 L 202 353 L 202 352 L 203 351 L 203 350 L 204 349 L 204 348 L 204 347 L 205 346 L 205 345 L 205 344 L 206 343 L 206 342 L 206 341 L 207 340 L 207 339 L 208 338 L 208 337 L 208 336 L 208 335 L 209 334 L 209 333 L 209 332 L 209 331 L 209 330 L 210 329 L 210 328 L 210 327 L 210 326 L 210 325 L 209 324 L 209 323 L 208 322 L 207 321 L 206 320 L 205 320 L 204 319 L 203 318 L 202 318 L 201 317 L 200 316 L 199 316 L 198 315 L 197 315 L 196 314 L 195 314 L 194 314 L 193 313 L 192 313 L 191 313 L 190 312 L 189 312 L 188 312 L 187 312 L 186 312 L 185 311 L 184 311 L 183 311 L 182 311 L 181 311 L 180 311 L 179 310 L 178 310 L 177 310 L 176 310 L 175 310 L 174 310 L 173 310 L 172 310 L 171 310 L 170 310 L 169 310 L 168 310 Z M 648 58 L 647 59 L 646 59 L 645 60 L 644 60 L 643 61 L 642 61 L 641 62 L 640 63 L 639 64 L 638 65 L 637 66 L 636 67 L 635 68 L 634 69 L 634 70 L 633 71 L 632 72 L 631 73 L 631 74 L 630 75 L 630 76 L 629 77 L 628 78 L 628 79 L 627 80 L 627 81 L 627 82 L 626 83 L 626 84 L 626 85 L 626 86 L 627 87 L 627 88 L 628 89 L 628 90 L 629 91 L 630 91 L 631 92 L 632 92 L 633 93 L 634 93 L 635 93 L 636 93 L 637 94 L 638 94 L 639 94 L 640 94 L 641 93 L 642 93 L 643 93 L 644 93 L 645 93 L 646 92 L 647 92 L 648 92 L 649 92 L 650 91 L 651 91 L 652 90 L 653 90 L 654 89 L 655 89 L 656 88 L 657 88 L 658 87 L 659 87 L 660 86 L 661 86 L 662 85 L 663 85 L 664 84 L 665 83 L 666 83 L 667 82 L 668 81 L 669 80 L 670 80 L 671 79 L 672 78 L 673 77 L 674 77 L 675 76 L 676 75 L 677 74 L 678 73 L 679 72 L 680 71 L 679 70 L 678 69 L 677 69 L 676 68 L 675 67 L 674 67 L 673 66 L 672 66 L 671 65 L 670 64 L 669 64 L 668 64 L 667 63 L 666 62 L 665 62 L 664 62 L 663 61 L 662 61 L 661 60 L 660 60 L 659 60 L 658 60 L 657 59 L 656 59 L 655 59 L 654 58 L 653 58 L 652 58 L 651 58 L 650 58 L 649 58 Z M 633 4 L 632 5 L 631 5 L 630 5 L 629 5 L 628 5 L 627 6 L 626 6 L 625 6 L 624 7 L 623 7 L 622 7 L 621 8 L 620 8 L 619 9 L 618 9 L 617 9 L 616 10 L 615 10 L 614 11 L 613 11 L 612 12 L 611 13 L 610 13 L 609 14 L 608 14 L 607 15 L 606 16 L 605 17 L 604 17 L 603 18 L 602 19 L 601 20 L 600 21 L 599 22 L 598 23 L 597 24 L 596 25 L 595 26 L 595 27 L 594 28 L 593 29 L 592 30 L 592 31 L 591 32 L 590 33 L 590 34 L 589 35 L 588 36 L 588 37 L 587 38 L 587 39 L 586 40 L 586 41 L 585 42 L 585 43 L 584 44 L 584 45 L 583 46 L 583 47 L 582 48 L 581 49 L 580 49 L 579 50 L 578 51 L 577 52 L 576 53 L 575 54 L 574 55 L 573 56 L 572 57 L 571 58 L 570 59 L 569 60 L 568 61 L 567 62 L 566 63 L 565 64 L 564 65 L 563 66 L 562 66 L 561 67 L 560 68 L 559 69 L 558 70 L 557 71 L 556 72 L 555 73 L 554 74 L 553 74 L 552 75 L 551 76 L 550 77 L 549 78 L 548 79 L 547 80 L 546 80 L 545 81 L 544 82 L 543 83 L 542 84 L 541 85 L 540 86 L 539 86 L 538 87 L 537 88 L 536 89 L 535 90 L 534 91 L 533 91 L 532 92 L 531 93 L 530 94 L 529 95 L 528 96 L 527 96 L 526 97 L 525 98 L 524 99 L 523 100 L 522 100 L 521 101 L 520 102 L 519 103 L 518 104 L 517 104 L 516 105 L 515 106 L 514 107 L 513 108 L 512 108 L 511 109 L 510 110 L 509 111 L 508 112 L 507 112 L 506 113 L 505 114 L 504 115 L 503 115 L 502 116 L 501 117 L 500 118 L 499 118 L 498 119 L 497 120 L 496 121 L 495 121 L 494 122 L 493 123 L 492 124 L 491 124 L 490 125 L 489 126 L 488 127 L 487 127 L 486 128 L 485 129 L 484 130 L 483 130 L 482 131 L 481 132 L 480 132 L 479 133 L 478 134 L 477 135 L 476 135 L 475 136 L 474 137 L 473 137 L 472 138 L 471 139 L 470 140 L 469 140 L 468 141 L 467 142 L 466 142 L 465 143 L 464 144 L 463 144 L 462 145 L 461 146 L 460 147 L 459 147 L 458 148 L 457 149 L 456 149 L 455 150 L 454 151 L 453 151 L 452 152 L 451 153 L 450 153 L 449 154 L 448 155 L 447 155 L 446 156 L 445 157 L 444 157 L 443 158 L 442 159 L 441 159 L 440 160 L 439 161 L 438 161 L 437 162 L 436 163 L 435 163 L 434 164 L 433 165 L 432 165 L 431 166 L 430 167 L 429 167 L 428 168 L 427 168 L 426 169 L 425 170 L 424 170 L 423 171 L 422 172 L 421 172 L 420 173 L 419 173 L 418 174 L 417 175 L 416 175 L 415 176 L 414 176 L 413 177 L 412 178 L 411 178 L 410 179 L 409 180 L 408 180 L 407 181 L 406 181 L 405 182 L 404 183 L 403 183 L 402 184 L 401 184 L 400 185 L 399 186 L 398 186 L 397 187 L 396 187 L 395 188 L 394 189 L 393 189 L 392 190 L 391 190 L 390 191 L 389 191 L 388 192 L 387 193 L 386 193 L 385 194 L 384 194 L 383 195 L 382 196 L 381 196 L 380 197 L 379 197 L 378 198 L 377 198 L 376 199 L 375 199 L 374 200 L 373 200 L 372 201 L 371 202 L 370 202 L 369 203 L 368 203 L 367 204 L 366 204 L 365 205 L 364 205 L 363 206 L 362 207 L 361 207 L 360 207 L 359 208 L 358 209 L 357 209 L 356 210 L 355 210 L 354 211 L 353 211 L 352 212 L 351 212 L 350 213 L 349 213 L 348 214 L 347 214 L 346 215 L 345 215 L 344 216 L 343 216 L 342 217 L 341 217 L 340 218 L 339 218 L 338 219 L 337 219 L 336 220 L 335 220 L 334 221 L 333 221 L 332 222 L 331 222 L 330 223 L 329 223 L 328 224 L 327 224 L 326 225 L 325 225 L 324 226 L 323 226 L 322 226 L 321 227 L 320 227 L 319 228 L 318 228 L 317 229 L 316 229 L 315 230 L 314 230 L 313 231 L 312 231 L 311 231 L 310 232 L 309 232 L 308 233 L 307 233 L 306 234 L 305 234 L 304 235 L 303 235 L 302 235 L 301 236 L 300 236 L 299 237 L 298 237 L 297 237 L 296 238 L 295 238 L 294 239 L 293 239 L 292 240 L 291 240 L 290 240 L 289 241 L 288 241 L 287 242 L 286 242 L 285 242 L 284 243 L 283 243 L 282 244 L 281 244 L 280 244 L 279 245 L 278 245 L 277 246 L 276 246 L 275 246 L 274 247 L 273 247 L 272 247 L 271 248 L 270 248 L 269 248 L 268 249 L 267 249 L 266 249 L 265 250 L 264 250 L 263 250 L 262 251 L 261 251 L 260 251 L 259 252 L 258 252 L 257 252 L 256 253 L 255 253 L 254 253 L 253 254 L 252 254 L 251 254 L 250 255 L 249 255 L 248 255 L 247 255 L 246 256 L 245 256 L 244 256 L 243 257 L 242 257 L 241 257 L 240 257 L 239 258 L 238 258 L 237 258 L 236 259 L 235 259 L 234 259 L 233 259 L 232 259 L 231 260 L 230 260 L 229 260 L 228 261 L 227 261 L 226 261 L 225 261 L 224 260 L 223 260 L 222 259 L 221 259 L 220 259 L 219 258 L 218 258 L 217 257 L 216 257 L 215 257 L 214 256 L 213 256 L 212 256 L 211 255 L 210 255 L 209 255 L 208 254 L 207 254 L 206 254 L 205 253 L 204 253 L 203 253 L 202 253 L 201 252 L 200 252 L 199 252 L 198 252 L 197 251 L 196 251 L 195 251 L 194 251 L 193 250 L 192 250 L 191 250 L 190 250 L 189 250 L 188 249 L 187 249 L 186 249 L 185 249 L 184 249 L 183 249 L 182 248 L 181 248 L 180 248 L 179 248 L 178 248 L 177 248 L 176 248 L 175 248 L 174 248 L 173 247 L 172 247 L 171 247 L 170 247 L 169 247 L 168 247 L 167 247 L 166 247 L 165 247 L 164 247 L 163 247 L 162 247 L 161 247 L 160 247 L 159 247 L 158 247 L 157 247 L 156 247 L 155 247 L 154 248 L 153 248 L 152 248 L 151 248 L 150 248 L 149 248 L 148 248 L 147 248 L 146 248 L 145 249 L 144 249 L 143 249 L 142 249 L 141 249 L 140 250 L 139 250 L 138 250 L 137 250 L 136 251 L 135 251 L 134 251 L 133 251 L 132 252 L 131 252 L 130 252 L 129 253 L 128 253 L 127 253 L 126 254 L 125 254 L 124 255 L 123 255 L 122 255 L 121 256 L 120 256 L 119 257 L 118 257 L 117 258 L 116 258 L 115 259 L 114 259 L 113 260 L 112 260 L 111 261 L 110 262 L 109 262 L 108 263 L 107 264 L 106 264 L 105 265 L 104 266 L 103 266 L 102 267 L 101 268 L 100 269 L 99 270 L 98 271 L 97 272 L 96 272 L 95 273 L 94 274 L 93 275 L 92 276 L 91 277 L 90 278 L 90 279 L 89 280 L 88 281 L 87 282 L 86 283 L 85 284 L 85 285 L 84 286 L 83 287 L 82 288 L 82 289 L 81 290 L 80 291 L 80 292 L 79 293 L 78 294 L 78 295 L 77 296 L 77 297 L 76 298 L 75 299 L 75 300 L 74 301 L 74 302 L 73 303 L 73 304 L 72 305 L 72 306 L 71 307 L 71 308 L 70 309 L 70 310 L 69 311 L 69 312 L 69 313 L 68 314 L 68 315 L 67 316 L 67 317 L 67 318 L 66 319 L 66 320 L 66 321 L 65 322 L 65 323 L 65 324 L 64 325 L 64 326 L 64 327 L 63 328 L 63 329 L 63 330 L 62 331 L 62 332 L 62 333 L 62 334 L 62 335 L 61 336 L 61 337 L 61 338 L 61 339 L 60 340 L 60 341 L 60 342 L 60 343 L 60 344 L 60 345 L 59 346 L 59 347 L 59 348 L 59 349 L 59 350 L 59 351 L 58 352 L 58 353 L 58 354 L 58 355 L 58 356 L 58 357 L 58 358 L 58 359 L 58 360 L 58 361 L 57 362 L 57 363 L 57 364 L 57 365 L 57 366 L 57 367 L 57 368 L 57 369 L 57 370 L 57 371 L 57 372 L 57 373 L 57 374 L 57 375 L 57 376 L 57 377 L 56 378 L 56 379 L 55 380 L 55 381 L 54 382 L 54 383 L 53 384 L 53 385 L 52 386 L 52 387 L 51 388 L 51 389 L 50 390 L 49 391 L 49 392 L 48 393 L 48 394 L 47 395 L 47 396 L 46 397 L 46 398 L 45 399 L 45 400 L 44 401 L 44 402 L 43 403 L 43 404 L 42 405 L 42 406 L 41 407 L 40 408 L 40 409 L 39 410 L 39 411 L 38 412 L 38 413 L 37 414 L 37 415 L 36 416 L 36 417 L 35 418 L 35 419 L 34 420 L 34 421 L 33 422 L 33 423 L 32 424 L 32 425 L 32 426 L 31 427 L 31 428 L 30 429 L 30 430 L 29 431 L 29 432 L 28 433 L 28 434 L 27 435 L 27 436 L 27 437 L 26 438 L 26 439 L 25 440 L 25 441 L 24 442 L 24 443 L 24 444 L 23 445 L 23 446 L 22 447 L 22 448 L 22 449 L 21 450 L 21 451 L 20 452 L 20 453 L 20 454 L 19 455 L 19 456 L 19 457 L 18 458 L 18 459 L 18 460 L 17 461 L 17 462 L 17 463 L 16 464 L 16 465 L 16 466 L 15 467 L 15 468 L 15 469 L 14 470 L 14 471 L 14 472 L 14 473 L 13 474 L 13 475 L 13 476 L 13 477 L 12 478 L 12 479 L 12 480 L 12 481 L 11 482 L 11 483 L 11 484 L 11 485 L 10 486 L 10 487 L 10 488 L 10 489 L 10 490 L 9 491 L 9 492 L 9 493 L 9 494 L 9 495 L 8 496 L 8 497 L 8 498 L 8 499 L 8 500 L 8 501 L 7 502 L 7 503 L 7 504 L 7 505 L 7 506 L 7 507 L 7 508 L 7 509 L 7 510 L 7 511 L 6 512 L 6 513 L 6 514 L 6 515 L 6 516 L 6 517 L 6 518 L 6 519 L 6 520 L 6 521 L 6 522 L 6 523 L 6 524 L 6 525 L 6 526 L 6 527 L 6 528 L 5 529 L 5 530 L 5 531 L 5 532 L 5 533 L 5 534 L 5 535 L 5 536 L 6 537 L 6 538 L 6 539 L 6 540 L 6 541 L 6 542 L 6 543 L 6 544 L 6 545 L 6 546 L 6 547 L 6 548 L 6 549 L 6 550 L 6 551 L 6 552 L 6 553 L 6 554 L 6 555 L 6 556 L 6 557 L 6 558 L 6 559 L 6 560 L 6 561 L 6 562 L 6 563 L 7 564 L 7 565 L 7 566 L 7 567 L 7 568 L 7 569 L 7 570 L 7 571 L 7 572 L 7 573 L 7 574 L 7 575 L 7 576 L 7 577 L 7 578 L 8 579 L 8 580 L 8 581 L 8 582 L 8 583 L 8 584 L 8 585 L 8 586 L 8 587 L 9 588 L 9 589 L 9 590 L 9 591 L 9 592 L 9 593 L 9 594 L 9 595 L 10 596 L 10 597 L 10 598 L 10 599 L 10 600 L 10 601 L 10 602 L 11 603 L 11 604 L 11 605 L 11 606 L 11 607 L 11 608 L 12 609 L 12 610 L 12 611 L 12 612 L 12 613 L 12 614 L 13 615 L 13 616 L 13 617 L 13 618 L 13 619 L 14 620 L 14 621 L 14 622 L 14 623 L 14 624 L 15 625 L 15 626 L 15 627 L 15 628 L 15 629 L 16 630 L 16 631 L 16 632 L 16 633 L 17 634 L 17 635 L 17 636 L 17 637 L 18 638 L 18 639 L 18 640 L 18 641 L 18 642 L 19 643 L 19 644 L 19 645 L 20 646 L 20 647 L 20 648 L 20 649 L 21 650 L 21 651 L 21 652 L 22 653 L 22 654 L 22 655 L 22 656 L 23 657 L 23 658 L 23 659 L 24 660 L 24 661 L 24 662 L 25 663 L 25 664 L 25 665 L 25 666 L 26 667 L 26 668 L 27 669 L 27 670 L 27 671 L 28 672 L 28 673 L 28 674 L 29 675 L 29 676 L 29 677 L 30 678 L 30 679 L 31 680 L 31 681 L 31 682 L 32 683 L 32 684 L 33 685 L 33 686 L 33 687 L 34 688 L 34 689 L 35 690 L 35 691 L 35 692 L 36 693 L 36 694 L 37 695 L 37 696 L 38 697 L 38 698 L 38 699 L 39 700 L 39 701 L 40 702 L 40 703 L 41 704 L 41 705 L 42 706 L 42 707 L 43 708 L 43 709 L 44 710 L 44 711 L 45 712 L 45 713 L 46 714 L 46 715 L 47 716 L 48 717 L 48 718 L 49 719 L 49 720 L 50 721 L 50 722 L 51 723 L 52 724 L 52 725 L 53 726 L 53 727 L 54 728 L 55 729 L 55 730 L 56 731 L 56 732 L 57 733 L 58 734 L 58 735 L 59 736 L 60 737 L 60 738 L 61 739 L 62 740 L 62 741 L 63 742 L 64 743 L 65 744 L 65 745 L 66 746 L 67 747 L 68 748 L 68 749 L 69 750 L 70 751 L 71 752 L 72 753 L 72 754 L 73 755 L 74 756 L 75 757 L 76 758 L 77 759 L 78 760 L 79 761 L 79 762 L 80 763 L 81 764 L 82 765 L 83 766 L 84 767 L 85 768 L 86 769 L 87 770 L 88 771 L 89 772 L 90 773 L 91 774 L 92 775 L 93 776 L 94 776 L 95 777 L 96 778 L 97 779 L 98 780 L 99 781 L 100 782 L 101 782 L 102 783 L 103 784 L 104 785 L 105 786 L 106 786 L 107 787 L 108 788 L 109 788 L 110 789 L 111 790 L 112 791 L 113 791 L 114 792 L 115 793 L 116 793 L 117 794 L 118 795 L 119 795 L 120 796 L 121 797 L 122 797 L 123 798 L 124 798 L 125 799 L 126 800 L 127 800 L 128 801 L 129 801 L 130 802 L 131 802 L 132 803 L 133 804 L 134 804 L 135 805 L 136 805 L 137 806 L 138 806 L 139 806 L 140 807 L 141 808 L 142 808 L 143 808 L 144 809 L 145 809 L 146 810 L 147 810 L 148 811 L 149 811 L 150 811 L 151 812 L 152 812 L 153 813 L 154 813 L 155 813 L 156 814 L 157 814 L 158 815 L 159 815 L 160 815 L 161 816 L 162 816 L 163 816 L 164 817 L 165 817 L 166 817 L 167 817 L 168 818 L 169 818 L 170 818 L 171 819 L 172 819 L 173 819 L 174 819 L 175 820 L 176 820 L 177 820 L 178 821 L 179 821 L 180 821 L 181 821 L 182 822 L 183 822 L 184 822 L 185 822 L 186 822 L 187 823 L 188 823 L 189 823 L 190 823 L 191 823 L 192 824 L 193 824 L 194 824 L 195 824 L 196 824 L 197 824 L 198 824 L 199 825 L 200 825 L 201 825 L 202 825 L 203 825 L 204 825 L 205 825 L 206 826 L 207 826 L 208 826 L 209 826 L 210 826 L 211 826 L 212 826 L 213 826 L 214 826 L 215 826 L 216 826 L 217 826 L 218 827 L 219 827 L 220 827 L 221 827 L 222 827 L 223 827 L 224 827 L 225 827 L 226 827 L 227 827 L 228 827 L 229 827 L 230 827 L 231 827 L 232 827 L 233 827 L 234 827 L 235 827 L 236 827 L 237 827 L 238 827 L 239 827 L 240 827 L 241 827 L 242 827 L 243 827 L 244 827 L 245 827 L 246 827 L 247 827 L 248 827 L 249 827 L 250 827 L 251 826 L 252 826 L 253 826 L 254 826 L 255 826 L 256 826 L 257 826 L 258 826 L 259 826 L 260 826 L 261 826 L 262 826 L 263 826 L 264 826 L 265 826 L 266 825 L 267 825 L 268 825 L 269 825 L 270 825 L 271 825 L 272 825 L 273 825 L 274 824 L 275 824 L 276 824 L 277 824 L 278 824 L 279 824 L 280 824 L 281 824 L 282 823 L 283 823 L 284 823 L 285 823 L 286 823 L 287 822 L 288 822 L 289 822 L 290 822 L 291 822 L 292 822 L 293 821 L 294 821 L 295 821 L 296 821 L 297 821 L 298 820 L 299 820 L 300 820 L 301 820 L 302 820 L 303 819 L 304 819 L 305 819 L 306 819 L 307 818 L 308 818 L 309 818 L 310 818 L 311 817 L 312 817 L 313 817 L 314 817 L 315 816 L 316 816 L 317 816 L 318 815 L 319 815 L 320 815 L 321 815 L 322 814 L 323 814 L 324 814 L 325 813 L 326 813 L 327 813 L 328 812 L 329 812 L 330 812 L 331 811 L 332 811 L 333 811 L 334 810 L 335 810 L 336 810 L 337 809 L 338 809 L 339 808 L 340 808 L 341 808 L 342 807 L 343 807 L 344 806 L 345 806 L 346 806 L 347 805 L 348 805 L 349 804 L 350 804 L 351 804 L 352 803 L 353 803 L 354 802 L 355 802 L 356 801 L 357 801 L 358 800 L 359 800 L 360 799 L 361 799 L 362 798 L 363 798 L 364 797 L 365 797 L 366 796 L 367 796 L 368 795 L 369 795 L 370 794 L 371 794 L 372 793 L 373 793 L 374 792 L 375 791 L 376 791 L 377 790 L 378 790 L 379 789 L 380 789 L 381 788 L 382 787 L 383 787 L 384 786 L 385 786 L 386 785 L 387 784 L 388 784 L 389 783 L 390 782 L 391 782 L 392 781 L 393 780 L 394 780 L 395 779 L 396 778 L 397 778 L 398 777 L 399 776 L 400 776 L 401 775 L 402 774 L 403 774 L 404 773 L 405 772 L 406 771 L 407 771 L 408 770 L 409 769 L 410 768 L 411 768 L 412 767 L 413 766 L 414 765 L 415 764 L 416 764 L 417 763 L 418 762 L 419 761 L 420 760 L 421 760 L 422 759 L 423 758 L 424 757 L 425 756 L 426 755 L 427 754 L 428 754 L 429 753 L 430 752 L 431 751 L 432 750 L 433 749 L 434 748 L 435 747 L 436 746 L 437 745 L 438 744 L 439 743 L 440 743 L 441 742 L 442 741 L 443 740 L 444 739 L 445 738 L 446 737 L 447 736 L 448 735 L 449 734 L 450 733 L 451 732 L 452 731 L 453 730 L 454 729 L 455 728 L 456 727 L 456 726 L 457 725 L 458 724 L 459 723 L 460 722 L 461 721 L 462 720 L 463 719 L 464 718 L 465 717 L 466 716 L 467 715 L 468 714 L 468 713 L 469 712 L 470 711 L 471 710 L 472 709 L 473 708 L 474 707 L 475 706 L 476 705 L 476 704 L 477 703 L 478 702 L 479 701 L 480 700 L 481 699 L 482 698 L 483 697 L 484 696 L 484 695 L 485 694 L 486 693 L 487 692 L 488 691 L 489 690 L 490 689 L 491 688 L 491 687 L 492 686 L 493 685 L 494 684 L 495 683 L 496 682 L 497 681 L 498 680 L 499 679 L 500 678 L 501 677 L 501 676 L 502 675 L 503 674 L 504 673 L 505 672 L 506 671 L 507 670 L 508 669 L 509 668 L 510 667 L 511 666 L 512 665 L 513 664 L 514 663 L 515 662 L 516 661 L 517 660 L 518 659 L 519 658 L 520 657 L 521 656 L 522 655 L 523 654 L 524 654 L 525 653 L 526 652 L 527 651 L 528 650 L 529 650 L 530 649 L 531 648 L 532 648 L 533 647 L 534 646 L 535 646 L 536 645 L 537 644 L 538 643 L 539 643 L 540 642 L 541 642 L 542 641 L 543 640 L 544 640 L 545 639 L 546 638 L 547 638 L 548 637 L 549 637 L 550 636 L 551 635 L 552 635 L 553 634 L 554 634 L 555 633 L 556 633 L 557 632 L 558 632 L 559 631 L 560 631 L 561 630 L 562 629 L 563 629 L 564 628 L 565 628 L 566 627 L 567 627 L 568 626 L 569 626 L 570 625 L 571 625 L 572 624 L 573 624 L 574 623 L 575 623 L 576 622 L 577 622 L 578 622 L 579 621 L 580 620 L 581 620 L 582 620 L 583 619 L 584 619 L 585 618 L 586 618 L 587 617 L 588 617 L 589 616 L 590 616 L 591 615 L 592 615 L 593 615 L 594 614 L 595 614 L 596 613 L 597 613 L 598 612 L 599 612 L 600 612 L 601 611 L 602 611 L 603 610 L 604 610 L 605 609 L 606 609 L 607 609 L 608 608 L 609 608 L 610 607 L 611 607 L 612 607 L 613 606 L 614 606 L 615 605 L 616 605 L 617 605 L 618 604 L 619 604 L 620 603 L 621 603 L 622 603 L 623 602 L 624 602 L 625 601 L 626 601 L 627 601 L 628 600 L 629 600 L 630 599 L 631 599 L 632 599 L 633 598 L 634 598 L 635 598 L 636 597 L 637 597 L 638 596 L 639 596 L 640 596 L 641 595 L 642 595 L 643 594 L 644 594 L 645 594 L 646 593 L 647 593 L 648 593 L 649 592 L 650 592 L 651 591 L 652 591 L 653 591 L 654 590 L 655 590 L 656 589 L 657 589 L 658 589 L 659 588 L 660 588 L 661 588 L 662 587 L 663 587 L 664 587 L 665 586 L 666 586 L 667 585 L 668 585 L 669 585 L 670 584 L 671 584 L 672 583 L 673 583 L 674 583 L 675 582 L 676 582 L 677 582 L 678 581 L 679 581 L 680 580 L 681 580 L 682 580 L 683 579 L 684 579 L 685 578 L 686 578 L 687 578 L 688 577 L 689 577 L 690 577 L 691 576 L 692 576 L 693 576 L 694 575 L 695 575 L 696 574 L 697 574 L 698 574 L 699 573 L 700 573 L 701 572 L 702 572 L 703 572 L 704 571 L 705 571 L 706 570 L 707 570 L 708 569 L 709 569 L 710 569 L 711 568 L 712 568 L 713 567 L 714 567 L 715 567 L 716 566 L 717 566 L 718 565 L 719 565 L 720 564 L 721 564 L 722 563 L 723 563 L 724 563 L 725 562 L 726 562 L 727 561 L 728 561 L 729 560 L 730 560 L 731 559 L 732 559 L 733 558 L 734 558 L 735 558 L 736 557 L 737 557 L 738 556 L 739 556 L 740 555 L 741 555 L 742 554 L 743 554 L 744 553 L 745 552 L 746 552 L 747 551 L 748 551 L 749 550 L 750 550 L 751 549 L 752 549 L 753 548 L 754 547 L 755 547 L 756 546 L 757 546 L 758 545 L 759 544 L 760 544 L 761 543 L 762 542 L 763 542 L 764 541 L 765 540 L 766 540 L 767 539 L 768 538 L 769 537 L 770 537 L 771 536 L 772 535 L 773 534 L 774 534 L 775 533 L 776 532 L 777 531 L 778 530 L 779 530 L 780 529 L 781 528 L 782 527 L 783 526 L 784 525 L 785 524 L 786 523 L 787 522 L 788 521 L 789 520 L 790 519 L 791 518 L 792 517 L 793 516 L 794 515 L 795 514 L 796 513 L 796 512 L 797 511 L 798 510 L 799 509 L 800 508 L 800 507 L 801 506 L 802 505 L 803 504 L 803 503 L 804 502 L 805 501 L 805 500 L 806 499 L 807 498 L 807 497 L 808 496 L 809 495 L 809 494 L 810 493 L 810 492 L 811 491 L 811 490 L 812 489 L 812 488 L 813 487 L 813 486 L 814 485 L 814 484 L 815 483 L 815 482 L 816 481 L 816 480 L 817 479 L 817 478 L 817 477 L 818 476 L 818 475 L 819 474 L 819 473 L 819 472 L 820 471 L 820 470 L 820 469 L 821 468 L 821 467 L 821 466 L 821 465 L 822 464 L 822 463 L 822 462 L 822 461 L 823 460 L 823 459 L 823 458 L 823 457 L 823 456 L 824 455 L 824 454 L 824 453 L 824 452 L 824 451 L 824 450 L 824 449 L 825 448 L 825 447 L 825 446 L 825 445 L 825 444 L 825 443 L 825 442 L 825 441 L 825 440 L 825 439 L 825 438 L 825 437 L 825 436 L 825 435 L 825 434 L 825 433 L 825 432 L 825 431 L 825 430 L 825 429 L 825 428 L 825 427 L 825 426 L 825 425 L 825 424 L 825 423 L 825 422 L 825 421 L 825 420 L 824 419 L 824 418 L 824 417 L 824 416 L 824 415 L 824 414 L 824 413 L 823 412 L 823 411 L 823 410 L 823 409 L 823 408 L 822 407 L 822 406 L 822 405 L 822 404 L 821 403 L 821 402 L 821 401 L 821 400 L 820 399 L 820 398 L 820 397 L 819 396 L 819 395 L 819 394 L 819 393 L 818 392 L 818 391 L 817 390 L 817 389 L 817 388 L 817 387 L 816 386 L 816 385 L 815 384 L 815 383 L 815 382 L 814 381 L 814 380 L 813 379 L 812 378 L 812 377 L 811 376 L 810 375 L 809 375 L 808 374 L 807 373 L 806 373 L 805 373 L 804 372 L 803 372 L 802 372 L 801 372 L 800 372 L 799 371 L 798 371 L 797 371 L 796 371 L 795 371 L 794 371 L 793 371 L 792 371 L 791 371 L 790 371 L 789 371 L 788 371 L 787 371 L 786 371 L 785 371 L 784 371 L 783 371 L 782 371 L 781 371 L 780 372 L 779 372 L 778 372 L 777 372 L 776 372 L 775 372 L 774 373 L 773 373 L 772 373 L 771 373 L 770 373 L 769 373 L 768 374 L 767 374 L 766 374 L 765 374 L 764 375 L 763 375 L 762 375 L 761 375 L 760 374 L 759 373 L 758 372 L 757 371 L 756 370 L 755 369 L 754 369 L 753 368 L 752 367 L 751 366 L 750 366 L 749 365 L 748 364 L 747 364 L 746 364 L 745 364 L 744 364 L 743 365 L 743 366 L 742 367 L 742 368 L 742 369 L 742 370 L 742 371 L 743 372 L 743 373 L 743 374 L 743 375 L 744 376 L 744 377 L 744 378 L 744 379 L 745 380 L 745 381 L 744 382 L 743 383 L 742 383 L 741 384 L 740 384 L 739 385 L 738 385 L 737 386 L 736 386 L 735 387 L 734 388 L 733 388 L 732 389 L 731 389 L 730 390 L 729 391 L 728 391 L 727 392 L 726 393 L 725 393 L 724 394 L 723 395 L 722 395 L 721 396 L 720 397 L 719 398 L 718 398 L 717 399 L 716 400 L 715 401 L 714 401 L 713 402 L 712 403 L 711 404 L 710 404 L 709 404 L 708 403 L 707 402 L 706 401 L 705 400 L 704 400 L 703 399 L 702 398 L 701 397 L 700 397 L 699 396 L 698 395 L 697 395 L 696 394 L 695 393 L 694 393 L 693 394 L 692 395 L 692 396 L 691 397 L 691 398 L 691 399 L 691 400 L 691 401 L 691 402 L 692 403 L 692 404 L 692 405 L 692 406 L 692 407 L 692 408 L 693 409 L 693 410 L 693 411 L 693 412 L 693 413 L 694 414 L 694 415 L 694 416 L 694 417 L 695 418 L 694 419 L 693 420 L 692 421 L 691 422 L 690 423 L 689 424 L 688 425 L 687 426 L 686 426 L 685 427 L 684 428 L 683 429 L 682 430 L 681 431 L 680 432 L 679 433 L 678 434 L 677 435 L 676 436 L 675 437 L 674 438 L 673 439 L 672 440 L 671 441 L 670 442 L 669 443 L 668 444 L 667 445 L 666 446 L 665 446 L 664 447 L 663 448 L 662 449 L 661 450 L 660 450 L 659 449 L 658 448 L 657 447 L 656 446 L 655 445 L 654 444 L 653 443 L 652 442 L 651 441 L 650 440 L 649 439 L 648 438 L 647 437 L 646 436 L 645 435 L 644 435 L 643 434 L 642 433 L 641 433 L 640 433 L 639 433 L 638 433 L 637 434 L 636 435 L 636 436 L 635 437 L 635 438 L 635 439 L 635 440 L 635 441 L 635 442 L 635 443 L 635 444 L 636 445 L 636 446 L 636 447 L 636 448 L 636 449 L 636 450 L 636 451 L 636 452 L 637 453 L 637 454 L 637 455 L 637 456 L 637 457 L 637 458 L 638 459 L 638 460 L 638 461 L 637 462 L 636 462 L 635 463 L 634 463 L 633 463 L 632 464 L 631 464 L 630 465 L 629 465 L 628 465 L 627 466 L 626 466 L 625 466 L 624 467 L 623 467 L 622 467 L 621 468 L 620 468 L 619 468 L 618 469 L 617 469 L 616 469 L 615 469 L 614 470 L 613 470 L 612 470 L 611 471 L 610 471 L 609 471 L 608 472 L 607 472 L 606 472 L 605 472 L 604 473 L 603 473 L 602 473 L 601 473 L 600 474 L 599 474 L 598 474 L 597 474 L 596 475 L 595 475 L 594 475 L 593 475 L 592 476 L 591 476 L 590 476 L 589 476 L 588 475 L 587 474 L 586 473 L 585 472 L 584 471 L 583 470 L 582 469 L 581 469 L 580 468 L 579 467 L 578 466 L 577 466 L 576 466 L 575 466 L 574 467 L 573 467 L 572 468 L 572 469 L 572 470 L 571 471 L 571 472 L 571 473 L 571 474 L 571 475 L 572 476 L 572 477 L 572 478 L 572 479 L 571 480 L 570 481 L 569 481 L 568 481 L 567 481 L 566 481 L 565 481 L 564 482 L 563 482 L 562 482 L 561 482 L 560 482 L 559 483 L 558 483 L 557 483 L 556 483 L 555 483 L 554 483 L 553 483 L 552 483 L 551 484 L 550 484 L 549 484 L 548 484 L 547 484 L 546 484 L 545 484 L 544 483 L 543 482 L 542 481 L 541 480 L 541 479 L 540 478 L 539 477 L 538 476 L 537 475 L 536 474 L 535 473 L 534 472 L 533 471 L 532 470 L 531 469 L 530 468 L 529 467 L 528 466 L 527 465 L 526 464 L 525 463 L 524 463 L 523 462 L 522 461 L 521 460 L 520 461 L 519 461 L 518 461 L 517 462 L 516 463 L 516 464 L 515 465 L 515 466 L 515 467 L 515 468 L 515 469 L 515 470 L 515 471 L 515 472 L 515 473 L 515 474 L 516 475 L 516 476 L 516 477 L 516 478 L 516 479 L 516 480 L 516 481 L 516 482 L 517 483 L 517 484 L 517 485 L 517 486 L 517 487 L 517 488 L 516 489 L 515 489 L 514 490 L 513 490 L 512 490 L 511 490 L 510 490 L 509 490 L 508 491 L 507 491 L 506 491 L 505 491 L 504 491 L 503 491 L 502 492 L 501 492 L 500 492 L 499 492 L 498 492 L 497 492 L 496 493 L 495 493 L 494 493 L 493 493 L 492 493 L 491 494 L 490 494 L 489 494 L 488 494 L 487 494 L 486 495 L 485 495 L 484 495 L 483 495 L 482 496 L 481 496 L 480 496 L 479 496 L 478 496 L 477 497 L 476 496 L 475 495 L 474 494 L 473 493 L 472 494 L 471 494 L 470 494 L 469 495 L 468 496 L 468 497 L 468 498 L 467 499 L 466 499 L 465 500 L 464 500 L 463 500 L 462 500 L 461 500 L 460 501 L 459 501 L 458 501 L 457 502 L 456 502 L 455 502 L 454 502 L 453 503 L 452 503 L 451 503 L 450 504 L 449 504 L 448 504 L 447 505 L 446 505 L 445 505 L 444 505 L 443 506 L 442 506 L 441 506 L 440 507 L 439 507 L 438 507 L 437 507 L 436 508 L 435 508 L 434 509 L 433 509 L 432 509 L 431 509 L 430 510 L 429 510 L 428 511 L 427 511 L 426 511 L 425 512 L 424 512 L 423 512 L 422 513 L 421 513 L 420 513 L 419 514 L 418 514 L 417 514 L 416 515 L 415 515 L 414 516 L 413 516 L 412 516 L 411 517 L 410 517 L 409 518 L 408 518 L 407 518 L 406 519 L 405 519 L 404 520 L 403 520 L 402 520 L 401 521 L 400 521 L 399 522 L 398 522 L 397 522 L 396 523 L 395 523 L 394 524 L 393 524 L 392 525 L 391 525 L 390 525 L 389 526 L 388 526 L 387 527 L 386 527 L 385 528 L 384 528 L 383 529 L 382 529 L 381 529 L 380 530 L 379 531 L 378 531 L 377 531 L 376 532 L 375 532 L 374 533 L 373 533 L 372 534 L 371 534 L 370 535 L 369 535 L 368 536 L 367 536 L 366 537 L 365 537 L 364 538 L 363 538 L 362 539 L 361 539 L 360 540 L 359 540 L 358 541 L 357 541 L 356 542 L 355 542 L 354 543 L 353 544 L 352 544 L 351 544 L 350 545 L 349 546 L 348 546 L 347 547 L 346 547 L 345 548 L 344 548 L 343 549 L 342 549 L 341 550 L 340 551 L 339 551 L 338 552 L 337 552 L 336 553 L 335 553 L 334 554 L 333 554 L 332 555 L 331 555 L 330 556 L 329 557 L 328 557 L 327 558 L 326 558 L 325 559 L 324 559 L 323 560 L 322 560 L 321 561 L 320 561 L 319 562 L 318 562 L 317 563 L 316 564 L 315 564 L 314 565 L 313 565 L 312 566 L 311 566 L 310 567 L 309 567 L 308 568 L 307 568 L 306 569 L 305 569 L 304 570 L 303 570 L 302 571 L 301 571 L 300 572 L 299 572 L 298 573 L 297 573 L 296 573 L 295 574 L 294 574 L 293 575 L 292 575 L 291 576 L 290 576 L 289 577 L 288 577 L 287 577 L 286 578 L 285 578 L 284 579 L 283 579 L 282 579 L 281 580 L 280 580 L 279 580 L 278 581 L 277 581 L 276 581 L 275 582 L 274 582 L 273 582 L 272 582 L 271 583 L 270 583 L 269 583 L 268 584 L 267 584 L 266 584 L 265 584 L 264 584 L 263 585 L 262 585 L 261 585 L 260 585 L 259 586 L 258 586 L 257 586 L 256 586 L 255 586 L 254 586 L 253 586 L 252 586 L 251 587 L 250 587 L 249 587 L 248 586 L 249 585 L 250 584 L 251 584 L 252 583 L 253 582 L 254 582 L 255 581 L 256 580 L 257 580 L 258 579 L 259 578 L 260 578 L 261 577 L 262 576 L 263 576 L 264 575 L 265 574 L 266 574 L 267 573 L 268 572 L 269 571 L 270 571 L 271 570 L 272 569 L 273 568 L 274 567 L 275 567 L 276 566 L 277 565 L 278 564 L 279 563 L 280 563 L 281 562 L 282 561 L 283 560 L 284 559 L 285 558 L 286 558 L 287 557 L 288 556 L 289 555 L 290 554 L 291 553 L 292 552 L 293 551 L 294 550 L 295 549 L 296 548 L 297 548 L 298 547 L 299 546 L 300 545 L 301 544 L 302 543 L 303 542 L 304 541 L 305 540 L 306 539 L 307 538 L 308 537 L 309 536 L 310 535 L 311 534 L 312 533 L 313 532 L 313 531 L 314 530 L 315 530 L 315 529 L 316 528 L 317 527 L 318 526 L 319 525 L 320 524 L 321 523 L 322 522 L 323 521 L 324 520 L 325 519 L 325 518 L 326 517 L 327 516 L 328 515 L 329 514 L 330 513 L 331 512 L 332 511 L 333 510 L 334 509 L 335 508 L 336 507 L 337 506 L 337 505 L 338 504 L 339 503 L 340 502 L 341 501 L 342 500 L 343 499 L 344 498 L 345 497 L 346 496 L 347 495 L 348 494 L 349 493 L 350 492 L 351 491 L 352 490 L 353 489 L 354 488 L 355 487 L 356 486 L 357 485 L 358 484 L 359 483 L 360 482 L 361 481 L 362 480 L 363 479 L 364 478 L 365 477 L 366 476 L 367 475 L 368 474 L 369 473 L 370 473 L 371 472 L 372 471 L 373 470 L 374 469 L 375 469 L 376 468 L 377 467 L 378 467 L 379 466 L 380 465 L 381 464 L 382 464 L 383 463 L 384 464 L 385 465 L 385 466 L 386 467 L 387 468 L 387 469 L 388 470 L 388 471 L 389 472 L 389 473 L 390 474 L 390 475 L 391 476 L 392 477 L 393 478 L 393 479 L 394 479 L 395 480 L 396 480 L 397 480 L 398 479 L 399 479 L 400 478 L 400 477 L 401 476 L 401 475 L 401 474 L 401 473 L 401 472 L 402 471 L 402 470 L 402 469 L 402 468 L 402 467 L 402 466 L 403 465 L 403 464 L 403 463 L 403 462 L 403 461 L 403 460 L 403 459 L 403 458 L 403 457 L 403 456 L 404 455 L 405 454 L 406 453 L 407 453 L 408 453 L 409 452 L 410 452 L 411 451 L 412 451 L 413 451 L 414 450 L 415 450 L 416 449 L 417 449 L 418 448 L 419 448 L 420 447 L 421 447 L 422 447 L 423 446 L 424 446 L 425 445 L 426 445 L 427 444 L 428 444 L 429 443 L 430 443 L 431 442 L 432 442 L 433 442 L 434 441 L 435 440 L 436 440 L 437 440 L 438 439 L 439 439 L 440 438 L 441 438 L 442 437 L 443 437 L 444 436 L 445 436 L 446 437 L 446 438 L 447 439 L 448 440 L 448 441 L 449 442 L 449 443 L 450 444 L 450 445 L 451 446 L 452 447 L 452 448 L 453 449 L 454 450 L 455 451 L 456 452 L 457 453 L 458 453 L 459 453 L 460 453 L 461 453 L 462 453 L 463 452 L 464 452 L 464 451 L 465 450 L 465 449 L 465 448 L 465 447 L 466 446 L 466 445 L 466 444 L 466 443 L 466 442 L 467 441 L 467 440 L 467 439 L 467 438 L 467 437 L 468 436 L 468 435 L 468 434 L 468 433 L 468 432 L 468 431 L 468 430 L 469 429 L 469 428 L 469 427 L 469 426 L 469 425 L 469 424 L 469 423 L 469 422 L 470 421 L 471 421 L 472 420 L 473 420 L 474 419 L 475 418 L 476 418 L 477 417 L 478 416 L 479 416 L 480 415 L 481 414 L 482 414 L 483 413 L 484 412 L 485 412 L 486 411 L 487 411 L 488 410 L 489 409 L 490 409 L 491 408 L 492 407 L 493 406 L 494 406 L 495 405 L 496 404 L 497 403 L 498 403 L 499 402 L 500 401 L 501 401 L 502 400 L 503 399 L 504 398 L 505 398 L 506 397 L 507 396 L 508 395 L 509 395 L 510 394 L 511 393 L 512 392 L 513 391 L 514 391 L 515 391 L 516 392 L 516 393 L 516 394 L 517 395 L 518 396 L 518 397 L 518 398 L 519 399 L 520 400 L 520 401 L 521 402 L 522 403 L 522 404 L 523 405 L 524 405 L 525 406 L 526 406 L 527 406 L 528 406 L 529 405 L 530 405 L 531 405 L 532 404 L 532 403 L 532 402 L 532 401 L 533 400 L 533 399 L 533 398 L 533 397 L 533 396 L 534 395 L 534 394 L 534 393 L 534 392 L 534 391 L 534 390 L 534 389 L 534 388 L 535 387 L 535 386 L 535 385 L 535 384 L 535 383 L 535 382 L 535 381 L 535 380 L 535 379 L 536 378 L 536 377 L 536 376 L 536 375 L 536 374 L 536 373 L 536 372 L 536 371 L 537 370 L 538 369 L 539 368 L 540 367 L 541 366 L 542 365 L 543 364 L 544 363 L 545 362 L 546 361 L 547 360 L 548 359 L 549 358 L 550 357 L 551 356 L 552 355 L 553 354 L 554 353 L 555 352 L 556 351 L 557 350 L 558 349 L 559 348 L 559 347 L 560 346 L 561 345 L 562 344 L 563 343 L 564 342 L 565 341 L 565 340 L 566 339 L 567 338 L 568 337 L 569 336 L 570 336 L 571 337 L 572 338 L 573 339 L 574 340 L 575 340 L 576 341 L 577 342 L 578 343 L 579 344 L 580 345 L 581 346 L 582 347 L 583 348 L 584 349 L 585 350 L 586 351 L 587 352 L 588 352 L 589 353 L 590 354 L 591 354 L 592 355 L 593 355 L 594 355 L 595 355 L 596 355 L 597 355 L 598 355 L 599 354 L 600 353 L 601 352 L 601 351 L 601 350 L 601 349 L 601 348 L 601 347 L 601 346 L 601 345 L 601 344 L 601 343 L 601 342 L 601 341 L 600 340 L 600 339 L 600 338 L 600 337 L 600 336 L 600 335 L 600 334 L 600 333 L 599 332 L 599 331 L 599 330 L 599 329 L 599 328 L 598 327 L 598 326 L 598 325 L 598 324 L 598 323 L 598 322 L 597 321 L 597 320 L 597 319 L 597 318 L 596 317 L 596 316 L 596 315 L 596 314 L 595 313 L 595 312 L 595 311 L 595 310 L 594 309 L 594 308 L 594 307 L 593 306 L 593 305 L 593 304 L 593 303 L 592 302 L 593 301 L 593 300 L 594 299 L 594 298 L 595 297 L 595 296 L 596 295 L 596 294 L 597 293 L 597 292 L 598 291 L 598 290 L 599 289 L 599 288 L 600 287 L 600 286 L 601 285 L 601 284 L 602 283 L 602 282 L 603 281 L 603 280 L 603 279 L 604 278 L 604 277 L 605 276 L 605 275 L 605 274 L 606 273 L 606 272 L 607 271 L 607 270 L 608 269 L 609 268 L 609 267 L 610 266 L 610 265 L 611 264 L 612 263 L 612 262 L 613 261 L 614 260 L 615 259 L 616 258 L 617 259 L 618 260 L 619 261 L 619 262 L 620 263 L 621 264 L 622 265 L 623 266 L 624 267 L 625 268 L 625 269 L 626 270 L 627 271 L 628 272 L 629 273 L 630 274 L 631 275 L 632 276 L 633 277 L 634 278 L 635 278 L 636 278 L 637 279 L 638 279 L 639 278 L 640 278 L 641 277 L 642 276 L 643 275 L 643 274 L 643 273 L 643 272 L 643 271 L 643 270 L 643 269 L 643 268 L 643 267 L 643 266 L 643 265 L 643 264 L 643 263 L 643 262 L 643 261 L 643 260 L 643 259 L 643 258 L 643 257 L 643 256 L 643 255 L 643 254 L 643 253 L 642 252 L 642 251 L 642 250 L 642 249 L 642 248 L 642 247 L 642 246 L 642 245 L 642 244 L 642 243 L 641 242 L 641 241 L 641 240 L 641 239 L 641 238 L 641 237 L 641 236 L 642 235 L 643 234 L 644 234 L 645 233 L 646 232 L 647 231 L 648 230 L 649 230 L 650 229 L 651 228 L 652 227 L 653 226 L 654 226 L 655 225 L 656 224 L 657 223 L 658 222 L 659 222 L 660 221 L 661 220 L 662 219 L 663 218 L 664 218 L 665 217 L 666 216 L 667 215 L 668 214 L 669 215 L 670 216 L 671 217 L 672 218 L 673 219 L 674 220 L 674 221 L 675 222 L 676 223 L 677 224 L 678 225 L 679 226 L 680 227 L 681 228 L 682 228 L 683 229 L 684 230 L 685 230 L 686 230 L 687 230 L 688 230 L 689 230 L 690 229 L 691 228 L 692 228 L 692 227 L 692 226 L 692 225 L 692 224 L 692 223 L 692 222 L 692 221 L 692 220 L 693 219 L 693 218 L 693 217 L 693 216 L 693 215 L 693 214 L 693 213 L 693 212 L 692 211 L 692 210 L 692 209 L 692 208 L 692 207 L 692 206 L 692 205 L 692 204 L 692 203 L 692 202 L 692 201 L 692 200 L 692 199 L 692 198 L 691 197 L 691 196 L 691 195 L 691 194 L 692 193 L 693 192 L 694 191 L 695 190 L 696 189 L 697 188 L 698 187 L 699 186 L 699 185 L 700 184 L 701 183 L 702 182 L 703 181 L 704 180 L 704 179 L 705 178 L 706 177 L 707 176 L 707 175 L 708 174 L 709 173 L 710 172 L 710 171 L 711 170 L 712 169 L 712 168 L 713 167 L 714 166 L 714 165 L 715 164 L 716 164 L 717 165 L 718 166 L 719 167 L 720 168 L 721 169 L 722 170 L 723 170 L 724 171 L 725 171 L 726 171 L 727 170 L 728 170 L 729 169 L 730 168 L 730 167 L 730 166 L 730 165 L 730 164 L 730 163 L 730 162 L 730 161 L 730 160 L 730 159 L 730 158 L 730 157 L 730 156 L 730 155 L 730 154 L 730 153 L 730 152 L 730 151 L 730 150 L 729 149 L 729 148 L 729 147 L 729 146 L 729 145 L 729 144 L 729 143 L 729 142 L 729 141 L 729 140 L 728 139 L 728 138 L 728 137 L 729 136 L 729 135 L 729 134 L 730 133 L 730 132 L 731 131 L 731 130 L 731 129 L 732 128 L 732 127 L 732 126 L 733 125 L 733 124 L 733 123 L 734 122 L 734 121 L 734 120 L 735 119 L 735 118 L 735 117 L 736 116 L 736 115 L 736 114 L 736 113 L 736 112 L 737 111 L 737 110 L 737 109 L 738 108 L 738 107 L 738 106 L 738 105 L 738 104 L 739 103 L 739 102 L 739 101 L 739 100 L 739 99 L 740 98 L 740 97 L 740 96 L 740 95 L 740 94 L 740 93 L 741 92 L 741 91 L 741 90 L 741 89 L 741 88 L 741 87 L 741 86 L 742 85 L 742 84 L 742 83 L 742 82 L 742 81 L 742 80 L 742 79 L 742 78 L 742 77 L 743 76 L 743 75 L 743 74 L 743 73 L 743 72 L 743 71 L 743 70 L 743 69 L 743 68 L 743 67 L 743 66 L 743 65 L 743 64 L 742 63 L 742 62 L 741 61 L 741 60 L 740 59 L 740 58 L 739 57 L 739 56 L 738 55 L 738 54 L 737 53 L 737 52 L 736 51 L 735 50 L 735 49 L 734 48 L 733 47 L 733 46 L 732 45 L 731 44 L 730 43 L 730 42 L 729 41 L 728 40 L 727 39 L 726 38 L 725 37 L 724 36 L 723 35 L 722 34 L 721 33 L 720 32 L 719 31 L 718 30 L 717 29 L 716 28 L 715 27 L 714 27 L 713 26 L 712 25 L 711 24 L 710 24 L 709 23 L 708 22 L 707 22 L 706 21 L 705 20 L 704 20 L 703 19 L 702 19 L 701 18 L 700 17 L 699 17 L 698 16 L 697 16 L 696 15 L 695 15 L 694 14 L 693 14 L 692 13 L 691 13 L 690 12 L 689 12 L 688 12 L 687 11 L 686 11 L 685 10 L 684 10 L 683 10 L 682 9 L 681 9 L 680 9 L 679 8 L 678 8 L 677 8 L 676 7 L 675 7 L 674 7 L 673 7 L 672 6 L 671 6 L 670 6 L 669 6 L 668 5 L 667 5 L 666 5 L 665 5 L 664 5 L 663 4 L 662 4 L 661 4 L 660 4 L 659 4 L 658 4 L 657 4 L 656 4 L 655 4 L 654 4 L 653 4 L 652 4 L 651 4 L 650 4 L 649 4 L 648 4 L 647 4 L 646 4 L 645 4 L 644 4 L 643 4 L 642 4 L 641 4 L 640 4 L 639 4 L 638 4 L 637 4 L 636 4 L 635 4 L 634 4 Z M 640 36 L 641 35 L 642 35 L 643 35 L 644 35 L 645 35 L 646 35 L 647 35 L 648 35 L 649 35 L 650 35 L 651 35 L 652 35 L 653 35 L 654 35 L 655 35 L 656 36 L 657 36 L 658 36 L 659 36 L 660 36 L 661 37 L 662 37 L 663 37 L 664 37 L 665 38 L 666 38 L 667 38 L 668 39 L 669 39 L 670 39 L 671 40 L 672 40 L 673 40 L 674 41 L 675 41 L 676 42 L 677 42 L 678 43 L 679 43 L 680 44 L 681 44 L 682 45 L 683 45 L 684 46 L 685 47 L 686 47 L 687 48 L 688 48 L 689 49 L 690 50 L 691 51 L 692 51 L 693 52 L 694 53 L 695 54 L 696 55 L 697 56 L 698 56 L 699 57 L 700 58 L 701 59 L 702 60 L 702 61 L 703 62 L 704 63 L 705 64 L 706 65 L 707 66 L 707 67 L 708 68 L 709 69 L 709 70 L 710 71 L 711 72 L 711 73 L 710 74 L 710 75 L 710 76 L 710 77 L 710 78 L 710 79 L 710 80 L 710 81 L 710 82 L 710 83 L 709 84 L 709 85 L 709 86 L 709 87 L 709 88 L 709 89 L 709 90 L 709 91 L 708 92 L 708 93 L 708 94 L 708 95 L 708 96 L 707 97 L 707 98 L 707 99 L 707 100 L 707 101 L 706 102 L 706 103 L 706 104 L 706 105 L 706 106 L 705 107 L 705 108 L 705 109 L 704 110 L 704 111 L 704 112 L 704 113 L 703 114 L 703 115 L 703 116 L 702 117 L 702 118 L 702 119 L 701 120 L 701 121 L 701 122 L 700 123 L 700 124 L 699 125 L 699 126 L 699 127 L 698 128 L 698 129 L 697 130 L 697 131 L 696 132 L 696 133 L 696 134 L 695 135 L 695 136 L 694 137 L 694 138 L 693 139 L 693 140 L 692 141 L 691 142 L 691 143 L 690 144 L 690 145 L 689 146 L 688 147 L 688 148 L 687 149 L 686 150 L 686 151 L 685 152 L 684 153 L 684 154 L 683 155 L 682 156 L 681 157 L 680 158 L 680 159 L 679 160 L 678 161 L 677 162 L 676 163 L 675 164 L 675 165 L 674 166 L 673 167 L 672 168 L 671 169 L 670 170 L 669 171 L 668 172 L 667 173 L 666 174 L 665 175 L 664 176 L 663 177 L 662 178 L 661 178 L 660 179 L 659 180 L 658 181 L 657 182 L 656 183 L 655 184 L 654 184 L 653 185 L 652 186 L 651 187 L 650 188 L 649 189 L 648 189 L 647 190 L 646 191 L 645 192 L 644 192 L 643 193 L 642 194 L 641 195 L 640 195 L 639 196 L 638 197 L 637 198 L 636 198 L 635 199 L 634 200 L 633 201 L 632 201 L 631 202 L 630 203 L 629 204 L 628 204 L 627 205 L 626 206 L 625 207 L 624 207 L 623 208 L 622 209 L 621 210 L 620 210 L 619 211 L 618 212 L 617 213 L 616 213 L 615 214 L 614 215 L 613 216 L 612 217 L 611 218 L 610 218 L 609 219 L 608 220 L 607 221 L 606 222 L 605 223 L 604 224 L 603 225 L 602 226 L 601 226 L 601 227 L 600 228 L 599 228 L 599 229 L 598 230 L 597 231 L 596 232 L 595 233 L 594 234 L 593 235 L 592 236 L 591 237 L 590 238 L 590 239 L 589 240 L 588 241 L 587 242 L 587 243 L 586 244 L 585 245 L 585 246 L 584 247 L 583 248 L 583 249 L 582 250 L 581 251 L 581 252 L 580 253 L 580 254 L 579 255 L 579 256 L 578 257 L 578 258 L 577 259 L 577 260 L 576 261 L 576 262 L 575 263 L 575 264 L 575 265 L 574 266 L 574 267 L 573 268 L 573 269 L 572 270 L 572 271 L 571 272 L 571 273 L 570 274 L 570 275 L 569 276 L 569 277 L 568 278 L 568 279 L 567 280 L 567 281 L 566 282 L 566 283 L 565 284 L 564 285 L 564 286 L 563 287 L 563 288 L 562 289 L 562 290 L 561 291 L 560 292 L 560 293 L 559 294 L 558 295 L 558 296 L 557 297 L 556 298 L 556 299 L 555 300 L 554 301 L 554 302 L 553 303 L 552 304 L 552 305 L 551 306 L 550 307 L 549 308 L 549 309 L 548 310 L 547 311 L 546 312 L 546 313 L 545 314 L 544 315 L 543 316 L 542 317 L 542 318 L 541 319 L 540 320 L 539 321 L 538 322 L 537 323 L 537 324 L 536 325 L 535 326 L 534 327 L 533 328 L 532 329 L 531 330 L 530 331 L 529 332 L 529 333 L 528 334 L 527 335 L 526 336 L 525 337 L 524 338 L 523 339 L 522 340 L 521 341 L 520 342 L 519 343 L 518 344 L 517 345 L 516 346 L 515 347 L 514 348 L 513 349 L 512 350 L 511 350 L 510 351 L 509 352 L 508 353 L 507 354 L 506 355 L 505 356 L 504 357 L 503 358 L 502 358 L 501 359 L 500 360 L 499 361 L 498 362 L 497 363 L 496 363 L 495 364 L 494 365 L 493 366 L 492 367 L 491 368 L 490 368 L 489 369 L 488 370 L 487 371 L 486 371 L 485 372 L 484 373 L 483 374 L 482 374 L 481 375 L 480 376 L 479 377 L 478 377 L 477 378 L 476 379 L 475 380 L 474 380 L 473 381 L 472 382 L 471 382 L 470 383 L 469 384 L 468 384 L 467 385 L 466 386 L 465 386 L 464 387 L 463 388 L 462 388 L 461 389 L 460 390 L 459 390 L 458 391 L 457 391 L 456 392 L 455 393 L 454 393 L 453 394 L 452 395 L 451 395 L 450 396 L 449 396 L 448 397 L 447 398 L 446 398 L 445 399 L 444 399 L 443 400 L 442 400 L 441 401 L 440 402 L 439 402 L 438 403 L 437 403 L 436 404 L 435 404 L 434 405 L 433 405 L 432 406 L 431 406 L 430 407 L 429 408 L 428 408 L 427 408 L 426 409 L 425 410 L 424 410 L 423 411 L 422 411 L 421 412 L 420 412 L 419 413 L 418 413 L 417 413 L 416 414 L 415 414 L 414 415 L 413 415 L 412 416 L 411 416 L 410 417 L 409 417 L 408 418 L 407 418 L 406 419 L 405 419 L 404 419 L 403 420 L 402 420 L 401 421 L 400 421 L 399 422 L 398 422 L 397 422 L 396 423 L 395 423 L 394 424 L 393 424 L 392 424 L 391 425 L 390 425 L 389 426 L 388 426 L 387 426 L 386 427 L 385 427 L 384 428 L 383 428 L 382 428 L 381 429 L 380 430 L 379 430 L 378 430 L 377 431 L 376 431 L 375 432 L 374 432 L 373 433 L 372 433 L 371 433 L 370 434 L 369 435 L 368 435 L 367 436 L 366 436 L 365 437 L 364 437 L 363 438 L 362 439 L 361 439 L 360 440 L 359 441 L 358 441 L 357 442 L 356 443 L 355 443 L 354 444 L 353 445 L 352 446 L 351 446 L 350 447 L 349 448 L 348 449 L 347 450 L 346 451 L 345 451 L 344 452 L 343 453 L 342 454 L 341 455 L 340 456 L 339 457 L 338 458 L 337 459 L 336 460 L 335 461 L 334 462 L 333 463 L 332 464 L 331 465 L 330 466 L 329 467 L 328 468 L 327 469 L 326 470 L 325 471 L 324 472 L 323 473 L 322 474 L 321 475 L 320 476 L 320 477 L 319 478 L 318 479 L 317 480 L 316 481 L 315 482 L 314 483 L 313 484 L 312 485 L 311 486 L 310 487 L 310 488 L 309 489 L 308 490 L 307 491 L 306 492 L 305 493 L 304 494 L 303 495 L 303 496 L 302 497 L 301 498 L 300 499 L 299 500 L 298 501 L 297 502 L 296 503 L 295 504 L 294 505 L 294 506 L 293 507 L 292 507 L 292 508 L 291 509 L 290 510 L 289 511 L 288 512 L 287 513 L 286 514 L 285 515 L 284 516 L 283 517 L 282 518 L 281 519 L 280 520 L 279 521 L 278 522 L 277 523 L 276 524 L 275 525 L 274 526 L 273 527 L 272 528 L 271 529 L 270 530 L 269 531 L 268 531 L 267 532 L 266 533 L 265 534 L 264 535 L 263 536 L 262 537 L 261 538 L 260 538 L 259 539 L 258 540 L 257 541 L 256 542 L 255 543 L 254 544 L 253 544 L 252 545 L 251 546 L 250 547 L 249 547 L 248 548 L 247 549 L 246 549 L 245 550 L 244 551 L 243 552 L 242 552 L 241 553 L 240 554 L 239 554 L 238 555 L 237 556 L 236 556 L 235 557 L 234 558 L 233 558 L 232 559 L 231 559 L 230 560 L 229 561 L 228 561 L 227 562 L 226 562 L 225 563 L 224 563 L 223 564 L 222 564 L 221 565 L 220 566 L 219 566 L 218 566 L 217 567 L 216 567 L 215 568 L 214 568 L 213 569 L 212 569 L 211 570 L 210 570 L 209 571 L 208 571 L 207 571 L 206 572 L 205 572 L 204 573 L 203 573 L 202 573 L 201 574 L 200 574 L 199 574 L 198 575 L 197 575 L 196 575 L 195 576 L 194 576 L 193 576 L 192 577 L 191 577 L 190 577 L 189 577 L 188 578 L 187 578 L 186 578 L 185 579 L 184 579 L 183 579 L 182 579 L 181 579 L 180 580 L 179 580 L 178 580 L 177 581 L 176 581 L 175 582 L 174 582 L 173 583 L 172 584 L 171 585 L 170 586 L 170 587 L 169 588 L 169 589 L 168 590 L 168 591 L 168 592 L 167 593 L 167 594 L 167 595 L 167 596 L 167 597 L 167 598 L 168 599 L 168 600 L 168 601 L 169 602 L 169 603 L 170 604 L 170 605 L 171 606 L 172 607 L 173 608 L 174 609 L 175 609 L 176 610 L 177 610 L 178 611 L 179 611 L 180 611 L 181 611 L 182 612 L 183 612 L 184 612 L 185 613 L 186 613 L 187 613 L 188 613 L 189 613 L 190 614 L 191 614 L 192 614 L 193 614 L 194 615 L 195 615 L 196 615 L 197 615 L 198 616 L 199 616 L 200 616 L 201 616 L 202 616 L 203 616 L 204 617 L 205 617 L 206 617 L 207 617 L 208 617 L 209 618 L 210 618 L 211 618 L 212 618 L 213 618 L 214 618 L 215 618 L 216 618 L 217 618 L 218 619 L 219 619 L 220 619 L 221 619 L 222 619 L 223 619 L 224 619 L 225 619 L 226 619 L 227 619 L 228 619 L 229 620 L 230 620 L 231 620 L 232 620 L 233 620 L 234 620 L 235 620 L 236 620 L 237 620 L 238 620 L 239 620 L 240 620 L 241 620 L 242 620 L 243 620 L 244 619 L 245 619 L 246 619 L 247 619 L 248 619 L 249 619 L 250 619 L 251 619 L 252 619 L 253 619 L 254 619 L 255 618 L 256 618 L 257 618 L 258 618 L 259 618 L 260 618 L 261 618 L 262 618 L 263 617 L 264 617 L 265 617 L 266 617 L 267 617 L 268 616 L 269 616 L 270 616 L 271 616 L 272 616 L 273 615 L 274 615 L 275 615 L 276 615 L 277 614 L 278 614 L 279 614 L 280 614 L 281 613 L 282 613 L 283 613 L 284 612 L 285 612 L 286 612 L 287 611 L 288 611 L 289 611 L 290 611 L 291 610 L 292 610 L 293 609 L 294 609 L 295 609 L 296 608 L 297 608 L 298 608 L 299 607 L 300 607 L 301 606 L 302 606 L 303 606 L 304 605 L 305 605 L 306 604 L 307 604 L 308 603 L 309 603 L 310 602 L 311 602 L 312 602 L 313 601 L 314 601 L 315 600 L 316 600 L 317 599 L 318 599 L 319 598 L 320 598 L 321 597 L 322 597 L 323 596 L 324 596 L 325 595 L 326 595 L 327 594 L 328 594 L 329 593 L 330 593 L 331 592 L 332 592 L 333 591 L 334 591 L 335 590 L 336 589 L 337 589 L 338 588 L 339 588 L 340 587 L 341 587 L 342 586 L 343 586 L 344 585 L 345 585 L 346 584 L 347 583 L 348 583 L 349 582 L 350 582 L 351 581 L 352 581 L 353 580 L 354 580 L 355 579 L 356 578 L 357 578 L 358 577 L 359 577 L 360 576 L 361 576 L 362 575 L 363 575 L 364 574 L 365 574 L 366 573 L 367 573 L 368 572 L 369 571 L 370 571 L 371 570 L 372 570 L 373 569 L 374 569 L 375 568 L 376 568 L 377 567 L 378 567 L 379 566 L 380 566 L 381 565 L 382 565 L 383 564 L 384 564 L 385 563 L 386 563 L 387 562 L 388 562 L 389 561 L 390 561 L 391 560 L 392 560 L 393 559 L 394 559 L 395 559 L 396 558 L 397 558 L 398 557 L 399 557 L 400 556 L 401 556 L 402 555 L 403 555 L 404 554 L 405 554 L 406 554 L 407 553 L 408 553 L 409 552 L 410 552 L 411 551 L 412 551 L 413 550 L 414 550 L 415 550 L 416 549 L 417 549 L 418 548 L 419 548 L 420 548 L 421 547 L 422 547 L 423 547 L 424 546 L 425 546 L 426 545 L 427 545 L 428 545 L 429 544 L 430 544 L 431 543 L 432 543 L 433 543 L 434 542 L 435 542 L 436 542 L 437 541 L 438 541 L 439 541 L 440 540 L 441 540 L 442 540 L 443 539 L 444 539 L 445 539 L 446 538 L 447 538 L 448 538 L 449 537 L 450 537 L 451 537 L 452 537 L 453 536 L 454 536 L 455 535 L 456 535 L 457 535 L 458 535 L 459 534 L 460 534 L 461 534 L 462 534 L 463 533 L 464 533 L 465 533 L 466 532 L 467 532 L 468 532 L 469 532 L 470 531 L 471 531 L 472 531 L 473 530 L 474 530 L 475 530 L 476 530 L 477 530 L 478 529 L 479 529 L 480 529 L 481 528 L 482 528 L 483 528 L 484 528 L 485 528 L 486 527 L 487 527 L 488 527 L 489 527 L 490 526 L 491 526 L 492 526 L 493 526 L 494 526 L 495 525 L 496 525 L 497 525 L 498 525 L 499 525 L 500 525 L 501 524 L 502 524 L 503 524 L 504 524 L 505 524 L 506 523 L 507 523 L 508 523 L 509 523 L 510 523 L 511 523 L 512 522 L 513 522 L 514 522 L 515 522 L 516 522 L 517 522 L 518 521 L 519 521 L 520 521 L 521 521 L 522 521 L 523 521 L 524 521 L 525 520 L 526 520 L 527 520 L 528 520 L 529 520 L 530 519 L 531 519 L 532 519 L 533 519 L 534 519 L 535 519 L 536 519 L 537 518 L 538 518 L 539 518 L 540 518 L 541 518 L 542 518 L 543 517 L 544 517 L 545 517 L 546 517 L 547 517 L 548 517 L 549 517 L 550 516 L 551 516 L 552 516 L 553 516 L 554 516 L 555 516 L 556 515 L 557 515 L 558 515 L 559 515 L 560 515 L 561 515 L 562 514 L 563 514 L 564 514 L 565 514 L 566 514 L 567 514 L 568 513 L 569 513 L 570 513 L 571 513 L 572 513 L 573 512 L 574 512 L 575 512 L 576 512 L 577 512 L 578 512 L 579 511 L 580 511 L 581 511 L 582 511 L 583 511 L 584 510 L 585 510 L 586 510 L 587 510 L 588 510 L 589 509 L 590 509 L 591 509 L 592 509 L 593 508 L 594 508 L 595 508 L 596 508 L 597 508 L 598 507 L 599 507 L 600 507 L 601 507 L 602 506 L 603 506 L 604 506 L 605 506 L 606 505 L 607 505 L 608 505 L 609 505 L 610 504 L 611 504 L 612 504 L 613 504 L 614 503 L 615 503 L 616 503 L 617 502 L 618 502 L 619 502 L 620 502 L 621 501 L 622 501 L 623 501 L 624 500 L 625 500 L 626 500 L 627 499 L 628 499 L 629 499 L 630 499 L 631 498 L 632 498 L 633 498 L 634 497 L 635 497 L 636 497 L 637 496 L 638 496 L 639 495 L 640 495 L 641 495 L 642 495 L 643 494 L 644 494 L 645 493 L 646 493 L 647 493 L 648 492 L 649 492 L 650 492 L 651 491 L 652 491 L 653 491 L 654 490 L 655 490 L 656 489 L 657 489 L 658 489 L 659 488 L 660 488 L 661 487 L 662 487 L 663 486 L 664 486 L 665 486 L 666 485 L 667 485 L 668 484 L 669 484 L 670 483 L 671 483 L 672 482 L 673 481 L 674 481 L 675 480 L 676 480 L 677 479 L 678 478 L 679 477 L 680 477 L 681 476 L 682 475 L 683 474 L 684 473 L 685 472 L 686 472 L 687 471 L 688 470 L 689 469 L 690 468 L 691 467 L 692 466 L 693 465 L 694 464 L 695 463 L 696 462 L 697 461 L 698 460 L 699 459 L 700 458 L 701 457 L 702 456 L 703 455 L 704 454 L 705 453 L 706 452 L 707 451 L 708 450 L 709 449 L 710 448 L 711 447 L 712 446 L 713 445 L 714 444 L 715 443 L 716 442 L 717 441 L 718 440 L 719 439 L 720 438 L 721 437 L 722 436 L 723 435 L 724 434 L 725 434 L 726 433 L 727 432 L 728 431 L 729 430 L 730 429 L 731 428 L 732 428 L 733 427 L 734 426 L 735 425 L 736 425 L 737 424 L 738 423 L 739 422 L 740 422 L 741 421 L 742 420 L 743 420 L 744 419 L 745 418 L 746 418 L 747 417 L 748 417 L 749 416 L 750 416 L 751 415 L 752 415 L 753 414 L 754 414 L 755 413 L 756 413 L 757 412 L 758 412 L 759 411 L 760 411 L 761 411 L 762 410 L 763 410 L 764 410 L 765 409 L 766 409 L 767 409 L 768 408 L 769 408 L 770 408 L 771 407 L 772 407 L 773 407 L 774 407 L 775 407 L 776 407 L 777 406 L 778 406 L 779 406 L 780 406 L 781 406 L 782 406 L 783 405 L 784 405 L 785 405 L 786 405 L 787 406 L 788 407 L 788 408 L 788 409 L 789 410 L 789 411 L 789 412 L 789 413 L 790 414 L 790 415 L 790 416 L 790 417 L 790 418 L 791 419 L 791 420 L 791 421 L 791 422 L 791 423 L 792 424 L 792 425 L 792 426 L 792 427 L 792 428 L 792 429 L 792 430 L 792 431 L 792 432 L 792 433 L 792 434 L 792 435 L 793 436 L 793 437 L 793 438 L 793 439 L 793 440 L 793 441 L 792 442 L 792 443 L 792 444 L 792 445 L 792 446 L 792 447 L 792 448 L 792 449 L 792 450 L 792 451 L 792 452 L 791 453 L 791 454 L 791 455 L 791 456 L 790 457 L 790 458 L 790 459 L 790 460 L 789 461 L 789 462 L 789 463 L 788 464 L 788 465 L 788 466 L 787 467 L 787 468 L 786 469 L 786 470 L 785 471 L 785 472 L 784 473 L 784 474 L 783 475 L 783 476 L 782 477 L 781 478 L 781 479 L 780 480 L 780 481 L 779 482 L 778 483 L 778 484 L 777 485 L 776 486 L 775 487 L 775 488 L 774 489 L 773 490 L 772 491 L 771 492 L 771 493 L 770 494 L 769 495 L 768 496 L 767 497 L 766 498 L 765 499 L 764 500 L 763 501 L 762 502 L 761 503 L 760 504 L 759 505 L 758 505 L 757 506 L 756 507 L 755 508 L 754 509 L 753 509 L 752 510 L 751 511 L 750 512 L 749 513 L 748 513 L 747 514 L 746 515 L 745 515 L 744 516 L 743 517 L 742 517 L 741 518 L 740 519 L 739 519 L 738 520 L 737 520 L 736 521 L 735 522 L 734 522 L 733 523 L 732 523 L 731 524 L 730 524 L 729 525 L 728 525 L 727 526 L 726 526 L 725 527 L 724 527 L 723 528 L 722 528 L 721 529 L 720 529 L 719 530 L 718 530 L 717 531 L 716 531 L 715 531 L 714 532 L 713 532 L 712 533 L 711 533 L 710 534 L 709 534 L 708 535 L 707 535 L 706 536 L 705 536 L 704 536 L 703 537 L 702 537 L 701 538 L 700 538 L 699 538 L 698 539 L 697 539 L 696 540 L 695 540 L 694 540 L 693 541 L 692 541 L 691 542 L 690 542 L 689 542 L 688 543 L 687 543 L 686 544 L 685 544 L 684 544 L 683 545 L 682 545 L 681 546 L 680 546 L 679 546 L 678 547 L 677 547 L 676 548 L 675 548 L 674 548 L 673 549 L 672 549 L 671 549 L 670 550 L 669 550 L 668 551 L 667 551 L 666 551 L 665 552 L 664 552 L 663 552 L 662 553 L 661 553 L 660 554 L 659 554 L 658 554 L 657 555 L 656 555 L 655 555 L 654 556 L 653 556 L 652 557 L 651 557 L 650 557 L 649 558 L 648 558 L 647 559 L 646 559 L 645 559 L 644 560 L 643 560 L 642 560 L 641 561 L 640 561 L 639 562 L 638 562 L 637 562 L 636 563 L 635 563 L 634 563 L 633 564 L 632 564 L 631 564 L 630 565 L 629 565 L 628 566 L 627 566 L 626 566 L 625 567 L 624 567 L 623 568 L 622 568 L 621 568 L 620 569 L 619 569 L 618 570 L 617 570 L 616 570 L 615 571 L 614 571 L 613 572 L 612 572 L 611 572 L 610 573 L 609 573 L 608 573 L 607 574 L 606 574 L 605 575 L 604 575 L 603 575 L 602 576 L 601 576 L 600 577 L 599 577 L 598 577 L 597 578 L 596 578 L 595 579 L 594 579 L 593 579 L 592 580 L 591 580 L 590 581 L 589 581 L 588 582 L 587 582 L 586 582 L 585 583 L 584 583 L 583 584 L 582 584 L 581 585 L 580 585 L 579 586 L 578 586 L 577 586 L 576 587 L 575 587 L 574 588 L 573 588 L 572 589 L 571 589 L 570 590 L 569 590 L 568 590 L 567 591 L 566 591 L 565 592 L 564 592 L 563 593 L 562 593 L 561 594 L 560 594 L 559 595 L 558 595 L 557 596 L 556 596 L 555 597 L 554 597 L 553 598 L 552 598 L 551 599 L 550 599 L 549 600 L 548 600 L 547 601 L 546 601 L 545 602 L 544 602 L 543 603 L 542 603 L 541 604 L 540 605 L 539 605 L 538 606 L 537 606 L 536 607 L 535 607 L 534 608 L 533 609 L 532 609 L 531 610 L 530 610 L 529 611 L 528 612 L 527 612 L 526 613 L 525 613 L 524 614 L 523 615 L 522 615 L 521 616 L 520 617 L 519 617 L 518 618 L 517 619 L 516 619 L 515 620 L 514 621 L 513 622 L 512 622 L 511 623 L 510 624 L 509 625 L 508 625 L 507 626 L 506 627 L 505 628 L 504 629 L 503 629 L 502 630 L 501 631 L 500 632 L 499 633 L 498 634 L 497 635 L 496 635 L 495 636 L 494 637 L 493 638 L 492 639 L 491 640 L 490 641 L 489 642 L 488 643 L 487 644 L 486 645 L 485 646 L 484 647 L 483 648 L 482 649 L 481 650 L 480 651 L 479 652 L 478 653 L 477 654 L 477 655 L 476 656 L 475 657 L 474 658 L 473 659 L 472 660 L 471 661 L 470 662 L 469 663 L 468 664 L 468 665 L 467 666 L 466 667 L 465 668 L 464 669 L 463 670 L 462 671 L 461 672 L 460 673 L 459 674 L 459 675 L 458 676 L 457 677 L 456 678 L 455 679 L 454 680 L 453 681 L 453 682 L 452 683 L 451 684 L 450 685 L 449 686 L 448 687 L 447 688 L 446 689 L 445 690 L 444 691 L 444 692 L 443 693 L 442 694 L 441 695 L 440 696 L 439 697 L 438 698 L 437 699 L 436 700 L 435 701 L 435 702 L 434 703 L 433 704 L 432 705 L 431 706 L 430 707 L 429 708 L 428 709 L 427 710 L 426 711 L 425 712 L 424 713 L 423 714 L 422 715 L 421 716 L 420 717 L 419 718 L 418 719 L 417 720 L 416 721 L 415 722 L 414 723 L 413 724 L 412 725 L 411 726 L 410 727 L 409 728 L 408 729 L 407 730 L 406 730 L 405 731 L 404 732 L 403 733 L 402 734 L 401 735 L 400 736 L 399 736 L 398 737 L 397 738 L 396 739 L 395 740 L 394 741 L 393 741 L 392 742 L 391 743 L 390 744 L 389 745 L 388 745 L 387 746 L 386 747 L 385 748 L 384 748 L 383 749 L 382 750 L 381 750 L 380 751 L 379 752 L 378 753 L 377 753 L 376 754 L 375 755 L 374 755 L 373 756 L 372 757 L 371 757 L 370 758 L 369 759 L 368 759 L 367 760 L 366 760 L 365 761 L 364 762 L 363 762 L 362 763 L 361 763 L 360 764 L 359 765 L 358 765 L 357 766 L 356 766 L 355 767 L 354 767 L 353 768 L 352 768 L 351 769 L 350 769 L 349 770 L 348 770 L 347 771 L 346 771 L 345 772 L 344 772 L 343 773 L 342 773 L 341 774 L 340 774 L 339 774 L 338 775 L 337 775 L 336 776 L 335 776 L 334 777 L 333 777 L 332 777 L 331 778 L 330 778 L 329 779 L 328 779 L 327 779 L 326 780 L 325 780 L 324 780 L 323 781 L 322 781 L 321 781 L 320 782 L 319 782 L 318 782 L 317 783 L 316 783 L 315 783 L 314 784 L 313 784 L 312 784 L 311 785 L 310 785 L 309 785 L 308 785 L 307 786 L 306 786 L 305 786 L 304 787 L 303 787 L 302 787 L 301 787 L 300 787 L 299 788 L 298 788 L 297 788 L 296 788 L 295 789 L 294 789 L 293 789 L 292 789 L 291 790 L 290 790 L 289 790 L 288 790 L 287 790 L 286 790 L 285 791 L 284 791 L 283 791 L 282 791 L 281 791 L 280 792 L 279 792 L 278 792 L 277 792 L 276 792 L 275 792 L 274 792 L 273 792 L 272 793 L 271 793 L 270 793 L 269 793 L 268 793 L 267 793 L 266 793 L 265 793 L 264 794 L 263 794 L 262 794 L 261 794 L 260 794 L 259 794 L 258 794 L 257 794 L 256 794 L 255 794 L 254 794 L 253 794 L 252 794 L 251 794 L 250 795 L 249 795 L 248 795 L 247 795 L 246 795 L 245 795 L 244 795 L 243 795 L 242 795 L 241 795 L 240 795 L 239 795 L 238 795 L 237 795 L 236 795 L 235 795 L 234 795 L 233 795 L 232 795 L 231 795 L 230 795 L 229 795 L 228 795 L 227 795 L 226 795 L 225 795 L 224 795 L 223 795 L 222 795 L 221 795 L 220 795 L 219 795 L 218 795 L 217 794 L 216 794 L 215 794 L 214 794 L 213 794 L 212 794 L 211 794 L 210 794 L 209 794 L 208 794 L 207 794 L 206 794 L 205 793 L 204 793 L 203 793 L 202 793 L 201 793 L 200 793 L 199 792 L 198 792 L 197 792 L 196 792 L 195 792 L 194 792 L 193 791 L 192 791 L 191 791 L 190 791 L 189 791 L 188 790 L 187 790 L 186 790 L 185 790 L 184 789 L 183 789 L 182 789 L 181 789 L 180 788 L 179 788 L 178 788 L 177 788 L 176 787 L 175 787 L 174 787 L 173 786 L 172 786 L 171 786 L 170 785 L 169 785 L 168 785 L 167 784 L 166 784 L 165 784 L 164 783 L 163 783 L 162 782 L 161 782 L 160 781 L 159 781 L 158 781 L 157 780 L 156 780 L 155 779 L 154 779 L 153 778 L 152 778 L 151 777 L 150 777 L 149 776 L 148 776 L 147 775 L 146 775 L 145 774 L 144 774 L 143 773 L 142 773 L 141 772 L 140 771 L 139 771 L 138 770 L 137 770 L 136 769 L 135 768 L 134 768 L 133 767 L 132 766 L 131 766 L 130 765 L 129 764 L 128 763 L 127 763 L 126 762 L 125 761 L 124 760 L 123 759 L 122 759 L 121 758 L 120 757 L 119 756 L 118 755 L 117 754 L 116 753 L 115 753 L 114 752 L 113 751 L 112 750 L 111 749 L 110 748 L 109 747 L 108 746 L 107 745 L 106 744 L 105 743 L 104 742 L 104 741 L 103 740 L 102 739 L 101 738 L 100 737 L 99 736 L 98 735 L 97 734 L 97 733 L 96 732 L 95 731 L 94 730 L 94 729 L 93 728 L 92 727 L 91 726 L 91 725 L 90 724 L 89 723 L 88 722 L 88 721 L 87 720 L 86 719 L 86 718 L 85 717 L 84 716 L 84 715 L 83 714 L 83 713 L 82 712 L 81 711 L 81 710 L 80 709 L 79 708 L 79 707 L 78 706 L 78 705 L 77 704 L 77 703 L 76 702 L 75 701 L 75 700 L 74 699 L 74 698 L 73 697 L 73 696 L 72 695 L 72 694 L 71 693 L 71 692 L 70 691 L 70 690 L 69 689 L 69 688 L 68 687 L 68 686 L 67 685 L 67 684 L 67 683 L 66 682 L 66 681 L 65 680 L 65 679 L 64 678 L 64 677 L 63 676 L 63 675 L 63 674 L 62 673 L 62 672 L 61 671 L 61 670 L 61 669 L 60 668 L 60 667 L 60 666 L 59 665 L 59 664 L 59 663 L 58 662 L 58 661 L 57 660 L 57 659 L 57 658 L 56 657 L 56 656 L 56 655 L 55 654 L 55 653 L 55 652 L 54 651 L 54 650 L 54 649 L 54 648 L 53 647 L 53 646 L 53 645 L 52 644 L 52 643 L 52 642 L 52 641 L 51 640 L 51 639 L 51 638 L 50 637 L 50 636 L 50 635 L 50 634 L 49 633 L 49 632 L 49 631 L 49 630 L 48 629 L 48 628 L 48 627 L 48 626 L 48 625 L 47 624 L 47 623 L 47 622 L 47 621 L 46 620 L 46 619 L 46 618 L 46 617 L 46 616 L 45 615 L 45 614 L 45 613 L 45 612 L 45 611 L 44 610 L 44 609 L 44 608 L 44 607 L 44 606 L 44 605 L 43 604 L 43 603 L 43 602 L 43 601 L 43 600 L 42 599 L 42 598 L 42 597 L 42 596 L 42 595 L 42 594 L 42 593 L 41 592 L 41 591 L 41 590 L 41 589 L 41 588 L 41 587 L 41 586 L 41 585 L 40 584 L 40 583 L 40 582 L 40 581 L 40 580 L 40 579 L 40 578 L 40 577 L 39 576 L 39 575 L 39 574 L 39 573 L 39 572 L 39 571 L 39 570 L 39 569 L 39 568 L 39 567 L 39 566 L 39 565 L 39 564 L 38 563 L 38 562 L 38 561 L 38 560 L 38 559 L 38 558 L 38 557 L 38 556 L 38 555 L 38 554 L 38 553 L 38 552 L 38 551 L 38 550 L 38 549 L 38 548 L 38 547 L 38 546 L 38 545 L 38 544 L 38 543 L 37 542 L 37 541 L 37 540 L 37 539 L 37 538 L 37 537 L 37 536 L 37 535 L 37 534 L 37 533 L 37 532 L 37 531 L 37 530 L 37 529 L 37 528 L 37 527 L 37 526 L 38 525 L 38 524 L 38 523 L 38 522 L 38 521 L 38 520 L 38 519 L 38 518 L 38 517 L 38 516 L 38 515 L 38 514 L 38 513 L 39 512 L 39 511 L 39 510 L 39 509 L 39 508 L 39 507 L 39 506 L 39 505 L 40 504 L 40 503 L 40 502 L 40 501 L 40 500 L 41 499 L 41 498 L 41 497 L 41 496 L 41 495 L 42 494 L 42 493 L 42 492 L 42 491 L 43 490 L 43 489 L 43 488 L 43 487 L 43 486 L 44 485 L 44 484 L 44 483 L 45 482 L 45 481 L 45 480 L 46 479 L 46 478 L 46 477 L 46 476 L 47 475 L 47 474 L 47 473 L 48 472 L 48 471 L 48 470 L 49 469 L 49 468 L 50 467 L 50 466 L 50 465 L 51 464 L 51 463 L 51 462 L 52 461 L 52 460 L 53 459 L 53 458 L 53 457 L 54 456 L 54 455 L 55 454 L 55 453 L 55 452 L 56 451 L 56 450 L 57 449 L 57 448 L 58 447 L 58 446 L 59 445 L 59 444 L 59 443 L 60 442 L 60 441 L 61 440 L 61 439 L 62 438 L 62 437 L 63 436 L 63 435 L 64 434 L 64 433 L 65 432 L 65 431 L 66 430 L 66 429 L 67 428 L 67 427 L 68 426 L 68 425 L 69 424 L 69 423 L 70 422 L 70 421 L 71 420 L 71 419 L 72 418 L 73 417 L 73 416 L 74 415 L 74 414 L 75 413 L 75 412 L 76 411 L 76 410 L 77 409 L 77 408 L 78 407 L 78 406 L 79 405 L 79 404 L 80 403 L 81 402 L 81 401 L 81 400 L 82 399 L 83 398 L 83 397 L 83 396 L 84 395 L 85 394 L 85 393 L 85 392 L 86 391 L 86 390 L 87 389 L 87 388 L 87 387 L 88 386 L 88 385 L 88 384 L 88 383 L 89 382 L 89 381 L 88 380 L 88 379 L 88 378 L 88 377 L 88 376 L 88 375 L 88 374 L 88 373 L 88 372 L 88 371 L 88 370 L 89 369 L 89 368 L 89 367 L 89 366 L 89 365 L 89 364 L 89 363 L 89 362 L 89 361 L 89 360 L 89 359 L 89 358 L 90 357 L 90 356 L 90 355 L 90 354 L 90 353 L 90 352 L 91 351 L 91 350 L 91 349 L 91 348 L 91 347 L 92 346 L 92 345 L 92 344 L 92 343 L 93 342 L 93 341 L 93 340 L 93 339 L 94 338 L 94 337 L 94 336 L 95 335 L 95 334 L 95 333 L 96 332 L 96 331 L 96 330 L 97 329 L 97 328 L 98 327 L 98 326 L 98 325 L 99 324 L 99 323 L 100 322 L 100 321 L 101 320 L 101 319 L 102 318 L 102 317 L 103 316 L 103 315 L 104 314 L 105 313 L 105 312 L 106 311 L 106 310 L 107 309 L 108 308 L 108 307 L 109 306 L 110 305 L 111 304 L 111 303 L 112 302 L 113 301 L 114 300 L 115 299 L 116 298 L 117 297 L 118 296 L 119 295 L 120 294 L 121 293 L 122 292 L 123 291 L 124 291 L 125 290 L 126 289 L 127 288 L 128 288 L 129 287 L 130 286 L 131 286 L 132 285 L 133 285 L 134 284 L 135 284 L 136 283 L 137 283 L 138 282 L 139 282 L 140 281 L 141 281 L 142 281 L 143 280 L 144 280 L 145 280 L 146 279 L 147 279 L 148 279 L 149 279 L 150 278 L 151 278 L 152 278 L 153 278 L 154 278 L 155 278 L 156 277 L 157 277 L 158 277 L 159 277 L 160 277 L 161 277 L 162 277 L 163 277 L 164 277 L 165 277 L 166 277 L 167 277 L 168 277 L 169 277 L 170 277 L 171 277 L 172 277 L 173 277 L 174 278 L 175 278 L 176 278 L 177 278 L 178 278 L 179 278 L 180 278 L 181 279 L 182 279 L 183 279 L 184 279 L 185 279 L 186 280 L 187 280 L 188 280 L 189 280 L 190 281 L 191 281 L 192 281 L 193 282 L 194 282 L 195 282 L 196 282 L 197 283 L 198 283 L 199 283 L 200 284 L 201 284 L 202 284 L 203 285 L 204 285 L 205 286 L 206 286 L 207 286 L 208 287 L 209 287 L 210 287 L 211 288 L 212 288 L 213 289 L 214 289 L 215 290 L 216 290 L 217 291 L 218 291 L 219 292 L 220 292 L 221 293 L 222 293 L 223 293 L 224 294 L 225 294 L 226 294 L 227 295 L 228 295 L 229 295 L 230 295 L 231 296 L 232 296 L 233 296 L 234 296 L 235 297 L 236 297 L 237 297 L 238 297 L 239 298 L 240 298 L 241 298 L 242 298 L 243 298 L 244 298 L 245 299 L 246 299 L 247 299 L 248 299 L 249 299 L 250 300 L 251 300 L 252 300 L 253 300 L 254 300 L 255 300 L 256 300 L 257 300 L 258 301 L 259 301 L 260 301 L 261 301 L 262 301 L 263 301 L 264 301 L 265 302 L 266 302 L 267 302 L 268 302 L 269 302 L 270 302 L 271 302 L 272 302 L 273 302 L 274 302 L 275 303 L 276 303 L 277 303 L 278 303 L 279 303 L 280 303 L 281 303 L 282 303 L 283 303 L 284 303 L 285 303 L 286 304 L 287 304 L 288 304 L 289 304 L 290 304 L 291 304 L 292 304 L 293 304 L 294 304 L 295 304 L 296 304 L 297 304 L 298 304 L 299 304 L 300 304 L 301 304 L 302 304 L 303 305 L 304 305 L 305 305 L 306 305 L 307 305 L 308 305 L 309 305 L 310 305 L 311 305 L 312 305 L 313 304 L 314 304 L 315 304 L 316 304 L 317 303 L 318 303 L 319 302 L 320 301 L 321 300 L 322 300 L 322 299 L 323 298 L 324 297 L 324 296 L 325 295 L 325 294 L 325 293 L 326 292 L 326 291 L 326 290 L 326 289 L 326 288 L 326 287 L 326 286 L 325 285 L 325 284 L 325 283 L 324 282 L 324 281 L 323 280 L 323 279 L 322 278 L 321 277 L 320 276 L 319 276 L 318 275 L 317 274 L 316 274 L 315 274 L 314 273 L 313 273 L 312 273 L 311 273 L 310 273 L 309 273 L 308 272 L 307 272 L 306 272 L 305 272 L 304 272 L 303 272 L 302 272 L 301 272 L 300 272 L 299 271 L 299 270 L 300 269 L 301 269 L 302 269 L 303 268 L 304 268 L 305 267 L 306 267 L 307 267 L 308 266 L 309 266 L 310 265 L 311 265 L 312 265 L 313 264 L 314 264 L 315 263 L 316 263 L 317 262 L 318 262 L 319 262 L 320 261 L 321 261 L 322 260 L 323 260 L 324 260 L 325 259 L 326 259 L 327 258 L 328 258 L 329 257 L 330 257 L 331 256 L 332 256 L 333 256 L 334 255 L 335 255 L 336 254 L 337 254 L 338 253 L 339 253 L 340 252 L 341 252 L 342 251 L 343 251 L 344 250 L 345 250 L 346 250 L 347 249 L 348 249 L 349 248 L 350 248 L 351 247 L 352 247 L 353 246 L 354 246 L 355 245 L 356 245 L 357 244 L 358 244 L 359 243 L 360 243 L 361 242 L 362 242 L 363 241 L 364 241 L 365 240 L 366 240 L 367 239 L 368 239 L 369 238 L 370 238 L 371 237 L 372 237 L 373 236 L 374 236 L 375 235 L 376 235 L 377 234 L 378 234 L 379 233 L 380 232 L 381 232 L 382 231 L 383 231 L 384 230 L 385 230 L 386 229 L 387 229 L 388 228 L 389 228 L 390 227 L 391 227 L 392 226 L 393 225 L 394 225 L 395 224 L 396 224 L 397 223 L 398 223 L 399 222 L 400 222 L 401 221 L 402 221 L 403 220 L 404 219 L 405 219 L 406 218 L 407 218 L 408 217 L 409 217 L 410 216 L 411 215 L 412 215 L 413 214 L 414 214 L 415 213 L 416 212 L 417 212 L 418 211 L 419 211 L 420 210 L 421 210 L 422 209 L 423 208 L 424 208 L 425 207 L 426 207 L 427 206 L 428 205 L 429 205 L 430 204 L 431 204 L 432 203 L 433 202 L 434 202 L 435 201 L 436 201 L 437 200 L 438 199 L 439 199 L 440 198 L 441 197 L 442 197 L 443 196 L 444 196 L 445 195 L 446 194 L 447 194 L 448 193 L 449 192 L 450 192 L 451 191 L 452 190 L 453 190 L 454 189 L 455 189 L 456 188 L 457 187 L 458 187 L 459 186 L 460 185 L 461 185 L 462 184 L 463 183 L 464 183 L 465 182 L 466 181 L 467 181 L 468 180 L 469 179 L 470 179 L 471 178 L 472 177 L 473 177 L 474 176 L 475 175 L 476 175 L 477 174 L 478 173 L 479 173 L 480 172 L 481 171 L 482 171 L 483 170 L 484 169 L 485 168 L 486 168 L 487 167 L 488 166 L 489 166 L 490 165 L 491 164 L 492 164 L 493 163 L 494 162 L 495 161 L 496 161 L 497 160 L 498 159 L 499 159 L 500 158 L 501 157 L 502 156 L 503 156 L 504 155 L 505 154 L 506 153 L 507 153 L 508 152 L 509 151 L 510 151 L 511 150 L 512 149 L 513 148 L 514 148 L 515 147 L 516 146 L 517 145 L 518 145 L 519 144 L 520 143 L 521 142 L 522 142 L 523 141 L 524 140 L 525 139 L 526 138 L 527 138 L 528 137 L 529 136 L 530 135 L 531 135 L 532 134 L 533 133 L 534 132 L 535 131 L 536 131 L 537 130 L 538 129 L 539 128 L 540 127 L 541 127 L 542 126 L 543 125 L 544 124 L 545 124 L 546 123 L 547 122 L 548 121 L 549 120 L 550 119 L 551 119 L 552 118 L 553 117 L 554 116 L 555 115 L 556 114 L 557 114 L 558 113 L 559 112 L 560 111 L 561 110 L 562 109 L 563 109 L 564 108 L 565 107 L 566 106 L 567 105 L 568 104 L 569 103 L 570 103 L 571 102 L 572 101 L 573 100 L 574 99 L 575 98 L 576 97 L 577 96 L 578 96 L 579 95 L 580 94 L 581 93 L 582 92 L 583 91 L 584 90 L 585 89 L 586 88 L 587 87 L 588 87 L 589 86 L 590 85 L 591 84 L 592 83 L 593 82 L 594 81 L 595 80 L 596 79 L 597 78 L 598 77 L 599 76 L 600 75 L 601 74 L 602 73 L 603 72 L 604 71 L 605 70 L 606 69 L 607 68 L 608 67 L 609 66 L 609 65 L 610 64 L 610 63 L 610 62 L 611 61 L 611 60 L 612 59 L 612 58 L 612 57 L 613 56 L 613 55 L 614 54 L 614 53 L 615 52 L 616 51 L 616 50 L 617 49 L 618 48 L 619 47 L 620 46 L 621 45 L 622 44 L 623 43 L 624 42 L 625 42 L 626 41 L 627 40 L 628 40 L 629 39 L 630 39 L 631 38 L 632 38 L 633 37 L 634 37 L 635 37 L 636 37 L 637 36 L 638 36 L 639 36 Z"/>
</svg>
